<svg width="25" height="24" viewBox="0 0 25 24" fill="none" xmlns="http://www.w3.org/2000/svg">
<path d="M16.1515 11.9999C16.1515 13.9799 14.5515 15.5799 12.5715 15.5799C10.5915 15.5799 8.99155 13.9799 8.99155 11.9999C8.99155 10.0199 10.5915 8.41992 12.5715 8.41992C14.5515 8.41992 16.1515 10.0199 16.1515 11.9999Z" stroke="#717171" stroke-width="1.5" stroke-linecap="round" stroke-linejoin="round"/>
<path d="M12.5715 20.2702C16.1015 20.2702 19.3915 18.1902 21.6815 14.5902C22.5815 13.1802 22.5815 10.8102 21.6815 9.40021C19.3915 5.80021 16.1015 3.72021 12.5715 3.72021C9.04153 3.72021 5.75153 5.80021 3.46153 9.40021C2.56153 10.8102 2.56153 13.1802 3.46153 14.5902C5.75153 18.1902 9.04153 20.2702 12.5715 20.2702Z" stroke="#717171" stroke-width="1.5" stroke-linecap="round" stroke-linejoin="round"/>
</svg>
