<svg width="13" height="24" viewBox="0 0 13 24" fill="none" xmlns="http://www.w3.org/2000/svg">
<path d="M12.1755 5.73834C11.7202 5.73834 11.3511 6.10748 11.3511 6.56276V17.8988C11.3511 20.3539 9.35404 22.3512 6.89889 22.3512C4.44374 22.3512 2.44669 20.3539 2.44669 17.8988V4.61664C2.44669 2.98028 3.77793 1.64884 5.41429 1.64884C7.05065 1.64884 8.38188 2.98028 8.38188 4.61664V15.8925C8.38188 16.6217 7.78853 17.2148 7.05951 17.2148C6.33049 17.2148 5.73713 16.6217 5.73713 15.8925V6.28178C5.73713 5.8265 5.368 5.45736 4.91271 5.45736C4.45743 5.45736 4.08829 5.8265 4.08829 6.28178V15.8925C4.08829 17.5308 5.42113 18.8637 7.05951 18.8637C8.69789 18.8637 10.0307 17.5308 10.0307 15.8925V4.61664C10.0307 2.07092 7.95961 0 5.41429 0C2.86897 0 0.797852 2.07092 0.797852 4.61664V17.8988C0.797852 21.2631 3.53479 24 6.89889 24C10.263 24 12.9999 21.2631 12.9999 17.8988V6.56276C12.9999 6.10748 12.6308 5.73834 12.1755 5.73834Z" fill="#717171"/>
</svg>
