<svg width="24" height="24" viewBox="0 0 24 24" fill="none" xmlns="http://www.w3.org/2000/svg">
<path fill-rule="evenodd" clip-rule="evenodd" d="M11.2661 4.97476C14.0238 4.0819 15.4082 3.63368 16.4183 4.36836V4.3669C17.4797 5.13898 17.5288 6.94026 17.5288 10.3245C17.5288 14.1241 17.5288 16.0316 16.3377 16.8491C15.9766 17.0974 15.5634 17.2132 15.0565 17.2132C14.22 17.2132 13.1271 16.8982 11.5873 16.3386C11.4708 18.0915 10.0841 19.4818 8.22646 19.4818C6.36878 19.4818 4.85685 17.9699 4.85685 16.1122V13.7923C3.95145 13.4312 3.36982 13.1506 2.94569 12.8188C2.07105 12.1339 2 11.2841 2 10.3253C2 9.30118 2 8.49248 2.97572 7.83174C3.71971 7.32794 4.98198 6.93759 7.74674 6.08262L7.74959 6.08174C8.29019 5.91472 8.8872 5.73013 9.54574 5.52429C10.1383 5.33946 10.6896 5.16118 11.1806 5.00242L11.2657 4.97489L11.2661 4.97476ZM8.22573 18.0175C9.27617 18.0175 10.1303 17.1634 10.1303 16.1129V15.7928C9.92665 15.7152 9.71715 15.6346 9.50032 15.5511C8.45208 15.1475 7.57378 14.8193 6.79877 14.5307C6.63891 14.4713 6.4852 14.4139 6.33698 14.3586L6.32117 14.3527V16.1129C6.32117 17.1634 7.17529 18.0175 8.22573 18.0175ZM10.0321 14.1862C12.5354 15.1509 14.898 16.0614 15.5085 15.6427H15.5078C16.063 15.261 16.063 13.1909 16.063 10.326C16.063 8.26173 16.063 5.92205 15.5554 5.55285C15.4719 5.49205 15.3415 5.46422 15.1701 5.46422C14.5099 5.46422 13.245 5.87349 11.7255 6.36514L11.7162 6.36816C11.2005 6.53517 10.616 6.72416 9.98233 6.92268C9.43337 7.09449 8.92699 7.2511 8.46022 7.39546C8.36579 7.42467 8.27299 7.45337 8.18178 7.48159L8.17087 7.48497C5.71356 8.24539 4.35936 8.66445 3.79615 9.04553C3.48849 9.2543 3.46359 9.34953 3.46359 10.326C3.46359 11.2358 3.54563 11.4292 3.84743 11.665C4.34 12.05 5.45638 12.4665 7.30541 13.1562L7.31008 13.1579C8.08875 13.448 8.97144 13.7776 10.027 14.1842L10.0321 14.1862ZM18.5499 6.17477C18.6913 5.79533 19.1125 5.60267 19.492 5.74405H19.4927C21.5167 6.49929 22.877 8.45586 22.877 10.619C22.877 12.7822 21.5152 14.7417 19.4883 15.4954C19.4041 15.5269 19.3184 15.5416 19.2334 15.5416C18.9352 15.5416 18.6562 15.3592 18.5463 15.064C18.4056 14.6845 18.5983 14.2626 18.9777 14.1219C20.434 13.5806 21.4119 12.172 21.4119 10.619C21.4119 9.06605 20.4347 7.65887 18.9807 7.1168C18.6012 6.97543 18.4086 6.55422 18.5499 6.17477Z" fill="#717171"/>
</svg>
