<svg width="24" height="25" viewBox="0 0 24 25" fill="none" xmlns="http://www.w3.org/2000/svg">
<path d="M14.53 9.97L9.47001 15.03C8.82001 14.38 8.42001 13.49 8.42001 12.5C8.42001 10.52 10.02 8.92 12 8.92C12.99 8.92 13.88 9.32 14.53 9.97Z" stroke="#717171" stroke-width="1.5" stroke-linecap="round" stroke-linejoin="round"/>
<path d="M17.82 6.27C16.07 4.95 14.07 4.23 12 4.23C8.47 4.23 5.18 6.31 2.89 9.91C1.99 11.32 1.99 13.69 2.89 15.1C3.68 16.34 4.6 17.41 5.6 18.27" stroke="#717171" stroke-width="1.5" stroke-linecap="round" stroke-linejoin="round"/>
<path d="M8.42001 20.03C9.56001 20.51 10.77 20.77 12 20.77C15.53 20.77 18.82 18.69 21.11 15.09C22.01 13.68 22.01 11.31 21.11 9.9C20.78 9.38 20.42 8.89 20.05 8.43" stroke="#717171" stroke-width="1.5" stroke-linecap="round" stroke-linejoin="round"/>
<path d="M15.51 13.2C15.25 14.61 14.1 15.76 12.69 16.02" stroke="#717171" stroke-width="1.5" stroke-linecap="round" stroke-linejoin="round"/>
<path d="M9.47 15.03L2 22.5" stroke="#717171" stroke-width="1.5" stroke-linecap="round" stroke-linejoin="round"/>
<path d="M22 2.5L14.53 9.97" stroke="#717171" stroke-width="1.5" stroke-linecap="round" stroke-linejoin="round"/>
</svg>
