<svg width="50" height="50" viewBox="0 0 50 50" fill="none" xmlns="http://www.w3.org/2000/svg">
<rect x="0.563843" width="48.9362" height="50" rx="12" fill="#F38001"/>
<path d="M25.1 20.831L28.9667 22.2807V13.2222H34.1222C35.5459 13.2222 36.7 14.3763 36.7 15.8V31.2666C36.7 32.6903 35.5459 33.8444 34.1222 33.8444H31.5444C31.5444 30.2852 28.6591 27.4 25.1 27.4C21.5408 27.4 18.6555 30.2852 18.6555 33.8444H16.0777C14.6541 33.8444 13.5 32.6903 13.5 31.2666V15.8C13.5 14.3763 14.6541 13.2222 16.0777 13.2222H21.2333V22.2807L25.1 20.831Z" fill="white"/>
<path fill-rule="evenodd" clip-rule="evenodd" d="M30.2556 33.8444C30.2556 30.9971 27.9473 28.6888 25.1 28.6888C22.2527 28.6888 19.9444 30.9971 19.9444 33.8444C19.9444 36.6917 22.2527 39 25.1 39C27.9473 39 30.2556 36.6917 30.2556 33.8444ZM27.78 32.9007C28.0316 32.6491 28.0316 32.241 27.78 31.9894C27.5283 31.7377 27.1203 31.7377 26.8686 31.9894L24.5257 34.3322L23.3313 33.1378C23.0796 32.8861 22.6716 32.8861 22.4199 33.1378C22.1682 33.3895 22.1682 33.7975 22.4199 34.0492L24.5257 36.155L27.78 32.9007Z" fill="white"/>
<path d="M27.6778 13.2222H22.5222V20.421L25.1 19.4545L27.6778 20.421V13.2222Z" fill="white"/>
</svg>
