<svg width="74" height="50" viewBox="0 0 74 50" fill="none" xmlns="http://www.w3.org/2000/svg">
<g clip-path="url(#clip0_2118_273)">
<path d="M71.7563 5.59085e-07C72.0302 0.394834 71.9358 0.8428 71.9248 1.27336C71.9166 1.572 71.6464 1.71125 71.4293 1.80286C69.8723 2.45786 68.9353 3.6561 68.2648 5.16581C67.6283 6.59949 66.8846 7.98736 66.1591 9.37981C66.0099 9.66563 66.0282 9.88915 66.1271 10.1667C66.6253 11.5665 67.0833 12.9819 67.5733 14.3844C68.0936 15.8703 68.5955 17.3635 69.123 18.8476C69.5032 19.9157 69.821 21.0059 70.2212 22.0658C70.5198 22.8554 70.943 23.6021 71.6684 24.0757C72.2738 24.4705 72.4781 25.0266 72.4368 25.6761C72.4185 25.9701 72.119 26.0966 71.7929 26.0947C70.5281 26.0846 69.2632 26.0911 67.9983 26.0901C67.4341 26.0901 66.8699 26.0755 66.3066 26.0938C65.9265 26.1057 65.8331 25.9262 65.7928 25.5771C65.7223 24.967 65.8487 24.4751 66.3726 24.1105C66.7838 23.8237 66.7948 23.4427 66.64 22.9938C66.0117 21.1708 65.4118 19.3377 64.7422 17.5284C64.2275 16.1396 63.7933 14.7206 63.3116 13.2796C63.1971 13.4335 63.2383 13.5791 63.2383 13.7111C63.2355 16.7323 63.2484 19.7545 63.2264 22.7757C63.2218 23.4133 63.405 23.9062 63.884 24.3267C64.3511 24.7362 64.3823 25.3481 64.0837 25.9023C64.0003 26.0562 63.9353 26.0901 63.7915 26.0901C62.5578 26.0883 61.3231 26.0892 60.0472 26.0892C60.2258 25.5304 60.5327 25.0586 60.7452 24.5475C61.259 23.3126 61.6189 22.0264 61.7618 20.7145C61.967 18.8347 62.1914 16.9494 62.1392 15.0486C62.1264 14.5685 62.1474 14.0857 61.9212 13.6387C61.8314 13.4619 61.9844 13.3089 61.9844 13.1284C61.9844 12.3269 61.9148 11.5308 61.7783 10.7457C61.607 9.75541 61.4559 8.76328 61.172 7.7904C60.8789 6.78729 60.388 6.48406 59.3319 6.85141C59.3319 5.68523 59.3191 4.53463 59.3365 3.38494C59.3466 2.71253 59.2055 2.14089 58.5809 1.7708C58.1247 1.50055 58.089 0.360939 58.4041 -0.000915527H64.0745C64.4134 0.352694 64.3493 1.44559 63.9225 1.73598C63.3894 2.09875 63.2273 2.57695 63.2319 3.19073C63.2474 5.37193 63.2374 7.55313 63.2401 9.73433C63.2401 9.83785 63.1925 9.96244 63.3125 10.0605C63.481 9.69128 63.6349 9.3395 63.8016 8.99414C64.7724 6.98058 65.7479 4.96885 66.7188 2.9553C66.88 2.62092 66.9038 2.15555 66.5063 1.82393C65.8926 1.31275 65.8111 0.688898 66.1775 -0.000915527H71.7563V5.59085e-07Z" fill="#1E1E1E"/>
<path d="M9.11127 5.59317e-07C9.11127 0.414988 9.12409 0.830891 9.10302 1.24588C9.09203 1.46574 8.93907 1.63888 8.76322 1.75522C8.26496 2.0841 8.09551 2.5284 8.09643 3.12477C8.10651 9.92763 8.10101 16.7305 8.07994 23.5334C8.07811 23.9886 8.1752 24.1306 8.64506 24.1032C9.47672 24.0546 10.3148 24.1728 11.0695 23.6433C11.6767 23.2173 11.9057 22.5815 12.1228 21.9485C12.3042 21.4227 12.4599 20.8767 12.5002 20.3096C12.5093 20.1796 12.5533 20.0486 12.6009 19.9258C12.643 19.8186 12.7337 19.76 12.8574 19.7856C12.9902 19.8131 12.9453 19.9221 12.9517 20.0046C13.0836 21.5656 13.4948 23.0561 14.0728 24.5053C14.2248 24.8864 14.0545 25.2996 14.1589 25.6688C14.2926 26.1378 14.0462 26.092 13.7431 26.0911C10.3761 26.0856 7.01015 26.0883 3.64324 26.0865C2.99386 26.0865 3.01309 26.0682 2.97371 25.4177C2.94165 24.8773 3.04057 24.4723 3.55348 24.1755C4.01144 23.9099 4.18547 23.4262 4.18547 22.904C4.18913 16.4978 4.19096 10.0907 4.1818 3.6845C4.1818 3.26768 4.19279 2.84445 4.00595 2.43587C3.90794 2.22243 3.80353 2.03646 3.62859 1.8963C3.00027 1.39245 2.8638 0.714548 3.25764 -0.000915527H9.11035L9.11127 5.59317e-07Z" fill="#1E1E1E"/>
<path d="M73.5852 33.4243C73.3919 33.5911 73.1721 33.6323 72.9166 33.6323C49.1 33.6268 25.2834 33.6277 1.46592 33.6268C1.25342 33.6268 1.03818 33.5938 0.827521 33.6121C0.582972 33.6332 0.463903 33.5352 0.423602 33.3043C0.38147 33.0588 0.47123 32.8875 0.709368 32.8188C0.822026 32.7858 0.947506 32.7849 1.06749 32.7849C25.0517 32.7849 49.0359 32.7867 73.021 32.795C73.2234 32.795 73.3947 32.7107 73.5852 32.6915V33.4243Z" fill="#1E1E1E"/>
<path d="M16.976 50C16.4137 49.2846 15.6837 49.5035 15.7029 48.2411C15.6525 46.9916 15.9795 45.8117 16.1499 44.5933C15.386 45.4342 15.0462 46.4703 14.6991 47.5211C14.6102 47.8335 14.3977 47.8564 14.144 47.7639C13.0037 47.3498 12.8169 46.8853 12.9341 45.6651C13.1402 43.515 13.7035 41.4474 14.2493 39.3771C14.5177 38.6415 14.8474 36.256 15.9044 36.4584C16.17 36.5143 16.4402 36.5839 16.682 36.7388C17.2444 37.0979 17.2719 37.107 17.0264 37.7116C16.1545 39.8461 15.4574 42.0951 14.8722 44.2864C14.9088 44.3065 14.9445 44.3267 14.9812 44.3469C15.7029 43.3685 16.5043 42.4377 17.053 41.3467C17.2197 40.9573 17.4395 41.2019 17.7014 41.2972C18.6604 41.5729 18.7767 41.8148 18.4964 42.7364C18.0815 44.6153 16.6445 48.3236 17.4322 50H16.9751H16.976Z" fill="#1E1E1E"/>
<path d="M14.8246 7.83161C18.4104 10.8116 22.4853 12.3479 24.5956 11.5005C23.567 11.2898 22.6785 10.8474 21.802 10.3774C21.3816 10.1521 21.3605 10.0714 21.6939 9.74074C22.5347 8.90527 23.5175 8.34371 24.6807 8.04506C25.7569 7.76841 26.8835 7.65023 27.8919 7.13356C28.1273 7.01263 28.3233 6.84591 28.5102 6.64986C29.2292 5.89592 29.939 5.13191 30.8384 4.57401C32.2755 3.68266 33.8921 3.83015 35.0278 5.28673C35.1936 5.49926 35.4043 5.67332 35.5536 5.906C35.68 6.10296 35.8842 6.08097 36.0784 6.00677C36.9632 5.66782 37.8397 5.64217 38.7217 6.03242C39.0102 6.15976 39.2008 6.0086 39.4078 5.75851C39.9427 5.11084 40.4711 4.39537 41.3074 4.13979C42.3497 3.82099 43.3315 4.09856 44.2181 4.71051C44.9445 5.21252 45.5801 5.82264 46.1571 6.48222C46.8093 7.227 47.6803 7.47984 48.5788 7.68962C49.9005 7.99834 51.2588 8.20721 52.3707 9.07658C52.7041 9.33675 53.0238 9.62989 53.2885 9.95694C53.5239 10.2483 53.1474 10.3545 53.0055 10.4241C52.2837 10.7768 51.5363 11.0782 50.8054 11.4153C50.6296 11.496 50.4418 11.3915 50.2742 11.4996C50.3465 11.6874 50.5087 11.6059 50.625 11.6151C53.2683 11.8239 55.6222 11.0059 57.7765 9.5392C58.4643 9.07108 59.1183 8.548 59.753 8.01025C60.0324 7.7739 60.1038 7.97727 60.1331 8.14308C60.3227 9.20666 60.5517 10.262 60.7028 11.3338C60.9693 13.2292 61.0673 15.1328 60.9474 17.0346C60.8851 18.0194 60.9016 19.0106 60.7275 19.9982C60.6314 20.546 60.5636 21.1204 60.4931 21.6819C60.4308 22.1757 60.2384 22.6594 60.0901 23.1303C59.7191 24.3093 59.1421 25.4113 58.4716 26.4621C57.3038 28.2933 55.6689 29.4577 53.6228 30.1493C52.2489 30.6138 50.8576 30.7264 49.4343 30.7127C47.3249 30.6916 45.5407 29.8598 43.9012 28.5837C42.6464 27.6081 41.6911 26.4282 41.0271 24.9881C40.7358 24.3551 40.6085 23.6762 40.4043 23.0194C40.3145 22.7308 40.1918 22.6209 39.9088 22.6154C39.274 22.6026 38.7007 22.8747 38.0962 22.9983C37.3076 23.1596 36.562 23.0835 35.8229 22.8032C35.7139 22.762 35.6003 22.7308 35.4895 22.696C34.7082 22.4524 34.5387 22.5788 34.3455 23.4188C34.0414 24.7407 33.4781 25.9371 32.6016 26.9888C31.3468 28.4939 29.8025 29.5786 27.9698 30.2428C26.8167 30.6605 25.6159 30.742 24.3904 30.7246C22.4981 30.699 20.7542 30.185 19.1532 29.2222C17.9286 28.4857 16.9715 27.4524 16.2223 26.2239C15.2908 24.6959 14.6386 23.0551 14.2823 21.31C14.1807 20.8144 14.1651 20.2647 14.0543 19.7838C13.8738 18.995 14.0845 18.21 13.8876 17.434C13.796 17.0713 13.9059 16.659 13.9132 16.2688C13.9334 15.1218 13.8876 13.9694 13.981 12.828C14.0717 11.7177 14.3089 10.6202 14.4683 9.51538C14.548 8.96207 14.6789 8.42249 14.8255 7.8307L14.8246 7.83161ZM24.3418 29.3111C26.8799 29.3853 28.8701 28.5462 30.5344 26.932C32.2288 25.2876 33.0147 23.2466 33.076 20.895C33.1951 16.277 29.1348 12.2536 24.4838 12.358C20.0334 12.4588 16.1572 16.1854 16.1508 20.8959C16.1453 25.3289 19.94 29.4824 24.3418 29.3102V29.3111ZM50.135 29.3019C51.6462 29.3963 53.0842 28.9859 54.427 28.2072C55.7624 27.4322 56.7909 26.3622 57.5859 25.0348C58.381 23.7092 58.6786 22.2526 58.6594 20.7613C58.5999 16.1195 54.9069 12.3745 50.0709 12.3644C45.6479 12.3562 41.7287 16.1552 41.7543 20.9362C41.7791 25.5167 45.6085 29.4458 50.1341 29.3019H50.135ZM37.3625 15.2015C35.9218 15.0769 34.8144 16.5152 34.8172 17.6356C34.8199 19.0326 35.996 20.2437 37.336 20.229C38.8014 20.2125 39.8813 19.1627 39.9179 17.7079C39.9527 16.3219 38.8335 15.1356 37.3625 15.2024V15.2015Z" fill="#1E1E1E"/>
<path d="M33.6824 43.9612C33.7337 41.0654 34.5195 38.5132 36.1764 36.2697C36.7342 35.4516 37.5814 34.7902 38.6027 35.3069C39.482 35.5249 40.3851 35.7869 40.8732 36.6206C41.9769 38.5279 41.3184 40.8465 40.7239 42.8206C39.994 44.662 38.6192 49.0546 35.9603 47.9361C33.904 47.1812 33.6586 45.9152 33.6824 43.9612ZM35.506 45.9995C35.4162 46.8963 36.2002 47.0154 36.6115 46.299C37.4147 45.284 37.9121 44.1215 38.2629 42.8875C38.741 41.015 39.0762 39.0775 39.0826 37.1427C39.1467 36.7552 38.8088 36.6123 38.5816 36.9449C37.1583 38.406 35.985 41.2331 35.506 45.9995Z" fill="#1E1E1E"/>
<path d="M8.61022 43.0946C7.86558 44.5749 7.49922 46.2092 6.89746 47.7519C6.78847 48.0634 6.61536 48.188 6.28563 47.9956C5.78187 47.7015 5.21492 47.4963 4.98961 46.8725C4.56554 45.2675 4.81925 43.6039 4.75971 41.9687C4.62965 39.8873 4.89527 37.8069 4.80642 35.7246C4.79177 35.4095 4.95388 35.4077 5.16088 35.4434C5.99345 35.5845 6.45782 36.146 6.45874 37.0044C6.50636 39.2946 6.41752 41.5812 6.28013 43.8668C6.27372 44.0088 6.23159 44.1645 6.36989 44.3661C7.28398 42.6631 8.19989 41.0269 8.83554 39.2067C8.87859 39.0757 8.96835 39.0803 9.04345 39.1114C9.47393 39.3285 10.2607 39.4055 10.3047 40.0009C10.2864 41.4108 9.95754 42.6759 10.0381 44.1087C11.4459 41.2605 11.9011 37.9984 13.4124 35.1557C13.6313 34.7142 13.7806 34.6895 14.3521 34.9826C14.8357 35.2309 14.8504 35.3032 14.625 35.7677C14.2129 36.616 13.9747 37.5275 13.6606 38.4115C12.7703 41.3604 11.5952 44.2845 11.2151 47.347C11.2435 47.6548 10.9925 47.6851 10.7718 47.587C8.94179 46.8661 8.63679 44.8489 8.61022 43.0964V43.0946Z" fill="#1E1E1E"/>
<path d="M53.4745 47.577C52.1345 47.5009 51.6765 47.3095 51.7123 45.2519C51.0913 45.7008 50.8852 46.8432 49.95 46.4135C49.438 46.2166 48.7584 46.1589 48.6403 45.448C48.4012 43.9648 49.0607 42.5137 50.1112 41.4749C51.2167 40.2611 52.2233 41.7992 52.4019 41.0224C53.0165 39.7994 53.4012 35.7393 55.4858 37.227C55.626 37.347 55.5957 37.4954 55.5243 37.6402C54.2109 40.5515 52.8059 44.3752 53.4754 47.5779L53.4745 47.577ZM51.7516 41.9861C50.9502 42.664 50.6269 43.5517 50.2917 44.5612C50.855 44.2332 51.8405 42.4588 51.7516 41.9861Z" fill="#1E1E1E"/>
<path d="M51.9038 39.989C51.411 40.0467 50.9751 39.6784 50.4548 39.9065C49.7743 40.2061 48.5928 39.814 48.5286 40.83C48.1586 43.2118 47.5083 45.567 47.5065 47.9901C47.5184 48.1678 47.7776 48.395 47.5459 48.5058C46.4266 48.4884 45.8075 47.1958 46.063 46.0462C46.3515 44.4357 46.4156 42.7876 46.7692 41.1872C46.8653 40.2638 46.2599 41.583 44.5783 40.338C43.6496 39.8223 45.8972 39.4238 46.2224 39.3862C47.0861 39.2451 47.141 39.1883 47.2546 38.3281C47.3471 37.6246 47.5074 36.9293 47.8243 36.2825C48.0533 35.6696 48.7842 36.3045 49.1771 36.4144C49.4253 36.4941 49.3942 36.7845 49.3411 36.9741C49.189 37.5156 49.1982 38.0863 49.0031 38.6222C48.9033 38.8961 48.9371 39.1508 49.374 39.1059C49.9822 39.0033 51.6748 39.4228 51.9047 39.989H51.9038Z" fill="#1E1E1E"/>
<path d="M37.4276 30.1969C36.4869 29.1801 35.8403 28.0093 35.2513 26.7946C35.0718 26.4245 34.9638 26.0315 34.8456 25.6531C34.7705 25.4131 35.0279 25.0751 35.244 24.89C35.7734 24.4357 36.3642 24.1471 37.1171 24.1572C37.9936 24.1691 38.8307 24.2039 39.5662 24.7535C39.8694 24.9807 40.1121 25.5771 39.9802 25.9078C39.4673 27.1977 38.9159 28.4664 38.0192 29.5529C37.8351 29.7765 37.6584 30.0009 37.4266 30.1969H37.4276Z" fill="#F38001"/>
<path d="M42.4378 45.4141C42.7583 45.3536 42.8389 45.0486 42.991 44.8516C43.7979 43.8027 44.538 42.7162 44.7944 41.3723C44.8475 41.0938 45.0261 40.9216 45.3953 41.1039C46.1262 41.4658 46.1701 41.4493 45.9549 42.2857C45.6032 43.7725 45.049 45.2794 45.1544 46.8249C45.1837 47.1125 45.082 47.1024 44.8924 47.0392C44.1386 46.8267 43.9225 46.3375 43.9591 45.5616C43.3775 45.9399 43.0093 46.7488 42.2381 46.4273C41.4376 46.1653 41.1601 45.7265 41.1088 44.8718C41.0236 43.4427 41.6409 42.2151 42.1236 40.9436C42.1731 40.8135 42.2738 40.8181 42.3324 40.8501C42.5458 40.9656 42.8087 40.9546 42.9992 41.0728C43.2346 41.2175 43.5854 41.2377 43.3802 41.7937C43.0029 42.9581 42.49 44.1874 42.4359 45.4141H42.4378Z" fill="#1E1E1E"/>
<path d="M69.5608 40.2785C72.3956 40.5946 71.4916 42.3324 69.984 43.7596C69.6442 44.2168 68.2767 43.8064 68.796 43.4656C69.3969 42.9361 70.1397 42.1666 70.0591 41.3219C69.4802 41.1497 68.2007 43.1001 67.9488 43.6149C67.6053 44.4275 69.1248 44.8681 69.5865 45.4049C70.9356 46.9174 68.2501 48.1898 67.0888 47.1904C66.5475 46.8652 66.89 46.5152 67.38 46.7626C68.4004 47.0612 68.8766 46.1946 68.1009 45.4819C67.5083 44.7307 65.9631 44.17 66.6061 43.0286C67.1849 41.9696 68.2703 40.3545 69.5617 40.2785H69.5608Z" fill="#1E1E1E"/>
<path d="M26.8727 47.511C26.3964 47.7538 24.9126 46.616 25.8817 46.7085C26.456 46.8184 27.4589 46.9632 27.1667 46.0306C26.9185 44.8525 24.767 44.4916 25.3019 43.1458C25.8405 42.1391 27.1246 40.1942 28.3812 40.2959C29.2577 40.3252 30.6087 40.9042 30.0683 41.965C29.647 42.8637 28.6514 44.5676 27.4974 43.7275C27.3242 43.5736 27.458 43.5361 27.5715 43.4408C28.1083 42.9947 28.5681 42.4908 28.7961 41.8047C29.0324 41.3127 28.6826 41.0865 28.3336 41.4987C27.8079 42.019 27.3462 42.5834 26.9359 43.2045C26.4376 43.9593 26.6446 44.2002 27.3783 44.7123C29.3219 45.6092 29.1112 47.5843 26.8718 47.5092L26.8727 47.511Z" fill="#1E1E1E"/>
<path d="M62.1536 46.0251C62.3194 44.3157 62.5703 42.5815 63.0585 40.9243C63.2078 40.2354 63.6328 40.5881 64.1292 40.6751C65.0003 40.8574 64.1292 41.4337 64.4159 41.6535C65.0103 41.4318 64.9343 40.4205 66.0756 40.8318C66.594 41.0205 66.6764 41.1561 66.5454 41.7094C66.365 42.4972 66.1626 43.2897 65.995 44.0757C65.8704 44.2296 66.2606 44.5227 65.8869 44.5823C65.5837 44.6299 64.9288 44.0784 64.8913 43.8329C64.8647 43.657 65.0369 43.3758 64.7795 43.3245C64.5203 43.2732 64.4929 43.6139 64.4232 43.7706C63.9662 44.7966 63.5788 45.851 63.5302 46.9925C63.5037 47.7849 62.0153 46.6856 62.1536 46.0251Z" fill="#1E1E1E"/>
<path d="M62.1428 43.0295C62.1337 43.7779 61.8809 44.7911 61.3963 45.742C61.0593 46.4071 60.136 46.6545 59.5077 46.2496C58.0065 45.5945 57.9937 44.7939 58.4306 43.2888C58.5863 42.7996 59.2879 41.157 59.8548 41.2147C61.0245 41.572 62.3681 41.1726 62.1428 43.0304V43.0295ZM59.6085 45.6055C60.2991 45.2244 60.8303 43.5755 60.6169 42.4111C60.0701 43.4601 59.4793 44.4018 59.6085 45.6055Z" fill="#1E1E1E"/>
<path d="M57.9468 43.1303C57.9157 43.8677 57.7655 44.9175 57.139 45.8428C56.3971 47.1281 54.4416 46.1332 54.0716 44.9954C53.9534 44.5557 54.0349 44.1499 54.1256 43.7596C54.3005 43.1119 55.0727 40.8794 55.9693 41.2798C57.2022 41.5518 58.1135 41.2871 57.9477 43.1303H57.9468ZM56.4172 42.5934C56.0829 43.1321 55.0708 44.9844 55.4747 45.4983C55.6662 45.5844 55.7816 45.3811 55.8603 45.2537C56.3641 44.4384 56.5564 43.5507 56.4172 42.5934Z" fill="#1E1E1E"/>
<path d="M22.6465 43.0725C22.7509 43.9318 22.4185 44.8021 21.9944 45.6486C21.454 46.8716 20.125 46.4382 19.2915 45.7631C18.5936 45.2345 18.6678 44.5145 18.8391 43.8109C18.9764 43.22 19.7687 41.2175 20.419 41.2129C21.7544 41.5949 22.8902 41.1598 22.6474 43.0725H22.6465ZM21.2204 42.5055C20.6443 43.351 20.2303 44.258 20.0902 45.2766C20.0343 45.6596 20.4218 45.6742 20.5317 45.3618C21.0821 44.4952 21.2598 43.5288 21.2204 42.5055Z" fill="#1E1E1E"/>
<path d="M25.5629 35.7759C25.3376 36.725 24.9556 37.4871 24.6177 38.3748C24.5389 38.5718 24.4445 38.7422 24.1936 38.5919C23.9472 38.4444 23.5259 38.4023 23.6202 37.9983C23.8098 37.1857 24.0589 36.386 24.2952 35.5844C24.4271 35.1365 24.5526 35.1145 24.9877 35.338C25.2286 35.4617 25.4603 35.5689 25.5638 35.7768L25.5629 35.7759Z" fill="#1E1E1E"/>
<path d="M17.4259 20.7008C17.3352 16.9274 20.6151 13.5058 24.3054 13.4454C26.4339 13.4096 28.2676 14.028 29.7798 15.5157C31.2123 16.9256 31.8919 18.6927 31.8928 20.6788C31.8956 24.7618 28.6871 27.8655 24.5856 27.9388C20.8533 28.0047 17.3426 24.5639 17.4259 20.7008ZM24.6131 25.7319C27.4286 25.6211 29.6662 23.6332 29.69 20.6156C29.7102 18.0185 27.642 15.4919 24.2257 15.6541C21.8727 15.7658 19.6736 17.8517 19.6296 20.709C19.5866 23.4838 21.9908 25.7008 24.614 25.7319H24.6131Z" fill="#F38001"/>
<path d="M50.0975 27.9397C46.5163 27.9699 42.674 24.7068 42.9735 20.0174C43.0816 18.329 43.8967 16.8468 45.0691 15.5954C46.2845 14.2983 47.837 13.5407 49.5388 13.4216C51.7947 13.2631 53.8637 13.9373 55.5051 15.6449C56.5565 16.7387 57.2306 18.0753 57.4312 19.5016C57.7591 21.8312 57.1455 23.9987 55.44 25.7292C53.9782 27.2132 52.1693 27.9104 50.0975 27.9397ZM45.2294 20.6559C45.0993 23.5177 47.5256 25.6687 50.0618 25.7173C53.2455 25.7777 55.2394 23.4261 55.2816 20.6211C55.321 17.9681 53.1337 15.5112 49.8429 15.6412C47.5732 15.731 45.1158 17.925 45.2294 20.6568V20.6559Z" fill="#F38001"/>
<path d="M24.4703 16.7579C27.0559 16.6837 28.5672 18.5471 28.5791 20.688C28.5919 23.0111 26.7811 24.5832 24.6342 24.6317C22.2611 24.6858 20.671 22.7904 20.6527 20.6421C20.6353 18.5635 22.2986 16.6993 24.4712 16.7589L24.4703 16.7579ZM23.0085 20.4205C23.7155 20.4205 24.2019 19.9102 24.2028 19.1663C24.2028 18.4564 23.7128 17.947 23.0277 17.9479C22.2244 17.9479 21.7298 18.4225 21.7317 19.1902C21.7335 19.9294 22.2428 20.4195 23.0085 20.4205ZM22.9205 21.5243C22.9205 21.1735 22.5981 20.8803 22.2061 20.8739C21.8672 20.8684 21.5503 21.1799 21.5476 21.5207C21.5448 21.932 21.8462 22.2535 22.2327 22.2517C22.6183 22.2499 22.9205 21.9311 22.9196 21.5243H22.9205Z" fill="#1E1E1E"/>
<path d="M54.1074 20.6962C54.2182 22.9654 52.2509 24.574 50.2047 24.6519C48.0056 24.7353 46.1737 22.6402 46.2305 20.5854C46.2855 18.5709 47.9002 16.6783 50.2963 16.7378C52.3525 16.7891 54.265 18.5498 54.1083 20.6971L54.1074 20.6962ZM48.5432 20.4214C49.2036 20.4965 49.8182 19.945 49.8035 19.1755C49.7916 18.5425 49.3785 17.9104 48.567 17.9425C47.7885 17.9727 47.337 18.4097 47.3379 19.2067C47.3388 19.9185 47.838 20.4214 48.5432 20.4214ZM47.7381 20.8758C47.369 20.8831 47.1501 21.1424 47.1529 21.5693C47.1556 21.9659 47.4414 22.2591 47.8178 22.2499C48.2318 22.2407 48.5368 21.9394 48.5267 21.5509C48.5167 21.1579 48.1759 20.8666 47.7381 20.8758Z" fill="#1E1E1E"/>
</g>
<defs>
<clipPath id="clip0_2118_273">
<rect width="73.1707" height="50" fill="white" transform="translate(0.414551)"/>
</clipPath>
</defs>
</svg>
