<svg width="36" height="36" viewBox="0 0 36 36" fill="none" xmlns="http://www.w3.org/2000/svg">
<rect x="0.5" y="0.5" width="35" height="35" rx="17.5" stroke="#E2E2E2" stroke-opacity="0.3"/>
<path d="M16 22.5C16 22.7812 15.75 23 15.5 23C15.2188 23 15 22.7812 15 22.5V16C15 15.75 15.2188 15.5 15.5 15.5C15.75 15.5 16 15.75 16 16V22.5ZM18.5 22.5C18.5 22.7812 18.25 23 18 23C17.7188 23 17.5 22.7812 17.5 22.5V16C17.5 15.75 17.7188 15.5 18 15.5C18.25 15.5 18.5 15.75 18.5 16V22.5ZM21 22.5C21 22.7812 20.75 23 20.5 23C20.2188 23 20 22.7812 20 22.5V16C20 15.75 20.2188 15.5 20.5 15.5C20.75 15.5 21 15.75 21 16V22.5ZM20.9062 10.7812L22.0625 12.5H24.25C24.6562 12.5 25 12.8438 25 13.25C25 13.6875 24.6562 14 24.25 14H24V23.5C24 24.9062 22.875 26 21.5 26H14.5C13.0938 26 12 24.9062 12 23.5V14H11.75C11.3125 14 11 13.6875 11 13.25C11 12.8438 11.3125 12.5 11.75 12.5H13.9062L15.0625 10.7812C15.375 10.3125 15.9375 10 16.5312 10H19.4375C20.0312 10 20.5938 10.3125 20.9062 10.7812ZM15.7188 12.5H20.25L19.6562 11.625C19.625 11.5625 19.5312 11.5 19.4375 11.5H16.5312C16.4375 11.5 16.3438 11.5625 16.3125 11.625L15.7188 12.5ZM13.5 23.5C13.5 24.0625 13.9375 24.5 14.5 24.5H21.5C22.0312 24.5 22.5 24.0625 22.5 23.5V14H13.5V23.5Z" fill="#717171"/>
</svg>
