<svg width="25" height="24" viewBox="0 0 25 24" fill="none" xmlns="http://www.w3.org/2000/svg">
<path d="M21.2858 5.97998C17.9558 5.64998 14.6058 5.47998 11.2658 5.47998C9.28583 5.47998 7.30583 5.57998 5.32583 5.77998L3.28583 5.97998" stroke="#FA513A" stroke-linecap="round" stroke-linejoin="round"/>
<path d="M8.78583 4.97L9.00583 3.66C9.16583 2.71 9.28583 2 10.9758 2H13.5958C15.2858 2 15.4158 2.75 15.5658 3.67L15.7858 4.97" stroke="#FA513A" stroke-linecap="round" stroke-linejoin="round"/>
<path d="M19.1359 9.13989L18.4859 19.2099C18.3759 20.7799 18.2859 21.9999 15.4959 21.9999H9.07585C6.28585 21.9999 6.19585 20.7799 6.08585 19.2099L5.43585 9.13989" stroke="#FA513A" stroke-linecap="round" stroke-linejoin="round"/>
<path d="M10.6158 16.5H13.9458" stroke="#FA513A" stroke-linecap="round" stroke-linejoin="round"/>
<path d="M9.78583 12.5H14.7858" stroke="#FA513A" stroke-linecap="round" stroke-linejoin="round"/>
</svg>
