<svg width="58" height="70" viewBox="0 0 58 70" fill="none" xmlns="http://www.w3.org/2000/svg">
<path d="M42.9845 28.6009L40.2408 56.6689C40.1549 57.5539 39.4061 58.2169 38.5359 58.2169C38.4797 58.2169 38.4234 58.214 38.3672 58.2081C37.423 58.1163 36.7334 57.2757 36.8281 56.3345L39.5719 28.2664C39.6636 27.3223 40.5013 26.6356 41.4455 26.7274C42.3867 26.8191 43.0763 27.6567 42.9845 28.6009ZM28.9994 26.7184C28.0522 26.7184 27.2827 27.485 27.2827 28.4351V56.5031C27.2827 57.4503 28.0493 58.2198 28.9994 58.2198C29.9465 58.2198 30.7161 57.4532 30.7161 56.5031V28.4321C30.7161 27.4849 29.9465 26.7184 28.9994 26.7184ZM18.43 28.2665C18.3383 27.3223 17.5036 26.6327 16.5564 26.7274C15.6122 26.8191 14.9226 27.6598 15.0174 28.601L17.7611 56.669C17.847 57.554 18.5929 58.217 19.466 58.217C19.5222 58.217 19.5785 58.2141 19.6347 58.2081C20.5789 58.1164 21.2685 57.2758 21.1738 56.3345L18.43 28.2665ZM57.3159 9.06598V14.5564C57.3159 16.0926 56.4043 17.4156 55.0931 18.0194L47.9451 66.7738C47.6699 68.6444 46.1012 70 44.2098 70H13.7861C11.8977 70 10.326 68.6444 10.0508 66.7738L2.90575 18.0194C1.59453 17.4156 0.682922 16.0926 0.682922 14.5564V9.06598C0.682922 7.58313 1.89057 6.37548 3.37341 6.37548H17.8768V3.92178C17.8768 1.76108 19.6349 0 21.7986 0H36.2073C38.368 0 40.1291 1.75812 40.1291 3.92178V6.37548H54.6325C56.1094 6.37548 57.3171 7.58313 57.3171 9.06598H57.3159ZM21.3071 6.37548H36.6925V3.92178C36.6925 3.6554 36.4675 3.43341 36.2041 3.43341H21.7954C21.529 3.43341 21.307 3.65836 21.307 3.92178L21.3071 6.37548ZM4.11378 14.5565C4.11378 14.7637 4.28841 14.9383 4.4956 14.9383H53.5076C53.7148 14.9383 53.8894 14.7637 53.8894 14.5565V9.80899L4.1144 9.80603L4.11378 14.5565ZM51.5747 18.3687H6.42556L13.4492 66.2737C13.4758 66.4483 13.612 66.5667 13.7896 66.5667H44.2133C44.3909 66.5667 44.5271 66.4483 44.5537 66.2737L51.5747 18.3687Z" fill="#F38001"/>
</svg>
