<svg width="17" height="17" viewBox="0 0 17 17" fill="none" xmlns="http://www.w3.org/2000/svg">
<path opacity="0.4" d="M0.527344 3.53845C0.527344 1.77717 1.95514 0.349365 3.71643 0.349365H13.2837C15.045 0.349365 16.4728 1.77717 16.4728 3.53845V13.1057C16.4728 14.867 15.045 16.2948 13.2837 16.2948H3.71643C1.95514 16.2948 0.527344 14.867 0.527344 13.1057V3.53845Z" fill="#FF6600"/>
<path d="M3.71643 16.295H13.2837C15.045 16.295 16.4728 14.8672 16.4728 13.1059V9.9168L14.1296 8.22971C12.912 7.35305 11.248 7.44366 10.1328 8.44733L6.86731 11.3863C5.75211 12.39 4.08811 12.4806 2.87053 11.6039L0.527344 9.9168V13.1059C0.527344 14.8672 1.95514 16.295 3.71643 16.295Z" fill="#F38001"/>
<circle cx="5.70949" cy="5.53175" r="1.99318" fill="#F38001"/>
</svg>
