<svg width="20" height="20" viewBox="0 0 20 20" fill="none" xmlns="http://www.w3.org/2000/svg">
<rect x="0.487628" y="0.487628" width="19.0247" height="19.0247" rx="9.51237" fill="white"/>
<rect x="0.487628" y="0.487628" width="19.0247" height="19.0247" rx="9.51237" stroke="#F38001" stroke-width="0.975256"/>
<path d="M12.2852 5.73828C12.832 5.19141 13.7109 5.19141 14.2578 5.73828L14.5117 5.99219C15.0586 6.53906 15.0586 7.41797 14.5117 7.96484L10.6445 11.832C10.4883 11.9883 10.2734 12.125 10.0391 12.1836L8.08594 12.75C7.92969 12.7891 7.75391 12.75 7.63672 12.6133C7.5 12.4961 7.46094 12.3203 7.5 12.1641L8.06641 10.2109C8.125 9.97656 8.26172 9.76172 8.41797 9.60547L12.2852 5.73828ZM13.5938 6.40234C13.418 6.22656 13.125 6.22656 12.9492 6.40234L12.3633 6.96875L13.2812 7.88672L13.8477 7.30078C14.0234 7.125 14.0234 6.83203 13.8477 6.65625L13.5938 6.40234ZM8.96484 10.4648L8.63281 11.6172L9.78516 11.2852C9.86328 11.2656 9.92188 11.2266 9.98047 11.168L12.6172 8.53125L11.7188 7.63281L9.08203 10.2695C9.02344 10.3281 8.98438 10.3867 8.96484 10.4648ZM8.90625 6.5C9.16016 6.5 9.375 6.71484 9.375 6.96875C9.375 7.24219 9.16016 7.4375 8.90625 7.4375H6.71875C6.26953 7.4375 5.9375 7.78906 5.9375 8.21875V13.5312C5.9375 13.9805 6.26953 14.3125 6.71875 14.3125H12.0312C12.4609 14.3125 12.8125 13.9805 12.8125 13.5312V11.3438C12.8125 11.0898 13.0078 10.875 13.2812 10.875C13.5352 10.875 13.75 11.0898 13.75 11.3438V13.5312C13.75 14.4883 12.9688 15.25 12.0312 15.25H6.71875C5.76172 15.25 5 14.4883 5 13.5312V8.21875C5 7.28125 5.76172 6.5 6.71875 6.5H8.90625Z" fill="#F38001"/>
</svg>
