<svg width="40" height="40" viewBox="0 0 40 40" fill="none" xmlns="http://www.w3.org/2000/svg">
<circle opacity="0.5" cx="20" cy="20" r="20" fill="white"/>
<path opacity="0.5" d="M26.7604 14.167H24.9682L24.3729 12.5355C24.1462 11.9172 23.573 11.5 22.9444 11.5H18.2509C17.6243 11.5 17.0491 11.9172 16.8224 12.5355L16.227 14.167H14.2384C13.0034 14.167 12 15.227 12 16.5318V25.1352C12 26.44 13.0034 27.5 14.2384 27.5H26.7616C27.9966 27.5 29 26.44 29 25.1352L28.999 16.5318C28.999 15.2292 27.9955 14.167 26.7604 14.167ZM20.5013 24.7841C18.3092 24.7841 16.5351 22.9068 16.5351 20.5941C16.5351 18.2804 18.3092 16.4008 20.5013 16.4008C22.6934 16.4008 24.4675 18.2782 24.4675 20.5908C24.4675 22.9035 22.6904 24.7841 20.5013 24.7841Z" fill="#F38001"/>
</svg>
