<svg width="25" height="24" viewBox="0 0 25 24" fill="none" xmlns="http://www.w3.org/2000/svg">
<path d="M15.8658 11.9999C15.8658 13.9799 14.2658 15.5799 12.2858 15.5799C10.3058 15.5799 8.70584 13.9799 8.70584 11.9999C8.70584 10.0199 10.3058 8.41992 12.2858 8.41992C14.2658 8.41992 15.8658 10.0199 15.8658 11.9999Z" stroke="#717171" stroke-linecap="round" stroke-linejoin="round"/>
<path d="M12.2858 20.27C15.8158 20.27 19.1058 18.19 21.3958 14.59C22.2958 13.18 22.2958 10.81 21.3958 9.39997C19.1058 5.79997 15.8158 3.71997 12.2858 3.71997C8.75582 3.71997 5.46582 5.79997 3.17582 9.39997C2.27582 10.81 2.27582 13.18 3.17582 14.59C5.46582 18.19 8.75582 20.27 12.2858 20.27Z" stroke="#717171" stroke-linecap="round" stroke-linejoin="round"/>
</svg>
