<svg width="24" height="25" viewBox="0 0 24 25" fill="none" xmlns="http://www.w3.org/2000/svg">
<path d="M5.40002 2.6001H18.6C19.7 2.6001 20.6 3.5001 20.6 4.6001V6.8001C20.6 7.6001 20.1 8.6001 19.6 9.1001L15.3 12.9001C14.7 13.4001 14.3 14.4001 14.3 15.2001V19.5001C14.3 20.1001 13.9 20.9001 13.4 21.2001L12 22.1001C10.7 22.9001 8.90002 22.0001 8.90002 20.4001V15.1001C8.90002 14.4001 8.50002 13.5001 8.10002 13.0001L4.30002 9.0001C3.80002 8.5001 3.40002 7.6001 3.40002 7.0001V4.7001C3.40002 3.5001 4.30002 2.6001 5.40002 2.6001Z" stroke="#717171" stroke-width="1.5" stroke-miterlimit="10" stroke-linecap="round" stroke-linejoin="round"/>
<path d="M10.93 2.6001L6 10.5001" stroke="#717171" stroke-width="1.5" stroke-miterlimit="10" stroke-linecap="round" stroke-linejoin="round"/>
</svg>
