<svg width="161" height="110" viewBox="0 0 161 110" fill="none" xmlns="http://www.w3.org/2000/svg">
<g clip-path="url(#clip0_1772_5807)">
<path d="M156.975 -2.92878e-05C157.578 0.868604 157.37 1.85413 157.346 2.80136C157.328 3.45838 156.734 3.76472 156.256 3.96626C152.83 5.40726 150.768 8.04339 149.293 11.3648C147.892 14.5188 146.256 17.5722 144.66 20.6355C144.331 21.2644 144.372 21.7561 144.589 22.3668C145.686 25.4463 146.693 28.5601 147.771 31.6456C148.916 34.9146 150.02 38.1997 151.181 41.4646C152.018 43.8146 152.717 46.2129 153.598 48.5447C154.255 50.2819 155.186 51.9245 156.782 52.9664C158.114 53.8351 158.563 55.0584 158.473 56.4873C158.432 57.1343 157.773 57.4124 157.056 57.4084C154.273 57.3862 151.49 57.4003 148.707 57.3983C147.465 57.3983 146.224 57.366 144.984 57.4063C144.148 57.4325 143.942 57.0375 143.854 56.2697C143.698 54.9274 143.977 53.8451 145.129 53.043C146.034 52.4122 146.058 51.5738 145.718 50.5863C144.335 46.5756 143.015 42.5428 141.542 38.5624C140.409 35.5071 139.454 32.3853 138.394 29.2151C138.142 29.5537 138.233 29.8741 138.233 30.1643C138.227 36.8111 138.255 43.4598 138.207 50.1066C138.197 51.5093 138.6 52.5936 139.654 53.5187C140.682 54.4195 140.75 55.7658 140.093 56.9851C139.91 57.3237 139.767 57.3983 139.45 57.3983C136.735 57.3942 134.019 57.3963 131.212 57.3963C131.604 56.1669 132.28 55.129 132.747 54.0044C133.878 51.2876 134.67 48.458 134.984 45.572C135.436 41.4364 135.929 37.2887 135.814 33.1068C135.786 32.0507 135.833 30.9886 135.335 30.0051C135.137 29.6161 135.474 29.2796 135.474 28.8825C135.474 27.1191 135.321 25.3677 135.02 23.6405C134.644 21.4619 134.311 19.2792 133.686 17.1388C133.041 14.932 131.961 14.2649 129.638 15.0731C129.638 12.5075 129.609 9.97615 129.648 7.44684C129.67 5.96754 129.359 4.70994 127.985 3.89572C126.981 3.30118 126.903 0.794034 127.596 -0.00204468H140.073C140.819 0.775896 140.677 3.18026 139.738 3.81914C138.565 4.61723 138.209 5.66926 138.219 7.01957C138.253 11.8182 138.231 16.6169 138.237 21.4155C138.237 21.6432 138.132 21.9173 138.396 22.133C138.767 21.3208 139.106 20.5469 139.472 19.7871C141.609 15.3572 143.755 10.9314 145.891 6.50162C146.246 5.766 146.298 4.74218 145.424 4.01261C144.073 2.88802 143.894 1.51554 144.7 -0.00204468H156.975V-2.92878e-05Z" fill="white"/>
<path d="M19.1355 -2.92878e-05C19.1355 0.912942 19.1637 1.82793 19.1174 2.7409C19.0932 3.2246 18.7566 3.6055 18.3697 3.86146C17.2733 4.58498 16.9005 5.56245 16.9025 6.87447C16.9247 21.8408 16.9126 36.807 16.8662 51.7733C16.8622 52.775 17.0758 53.0874 18.1097 53.0269C19.9396 52.9201 21.7836 53.1801 23.4442 52.0152C24.7804 51.078 25.2842 49.6793 25.7619 48.2867C26.1609 47.1299 26.5035 45.9287 26.5922 44.6812C26.6123 44.395 26.7091 44.1068 26.8139 43.8367C26.9066 43.6009 27.1061 43.4719 27.3782 43.5284C27.6704 43.5888 27.5716 43.8287 27.5857 44.01C27.8759 47.4443 28.7808 50.7233 30.0525 53.9117C30.387 54.7501 30.0122 55.659 30.2419 56.4712C30.5362 57.5031 29.994 57.4023 29.327 57.4003C21.9186 57.3882 14.5123 57.3943 7.10402 57.3902C5.67516 57.3902 5.71748 57.3499 5.63082 55.919C5.56029 54.7299 5.77794 53.8391 6.90652 53.1861C7.91418 52.6017 8.29709 51.5375 8.29709 50.3888C8.30515 36.2951 8.30918 22.1995 8.28903 8.10587C8.28903 7.18887 8.31322 6.25776 7.90209 5.35889C7.68645 4.88931 7.4567 4.48018 7.07178 4.17183C5.68927 3.06336 5.38898 1.57197 6.25557 -0.00204468H19.1335L19.1355 -2.92878e-05Z" fill="white"/>
<path d="M161 73.5335C160.575 73.9003 160.091 73.991 159.529 73.991C107.124 73.9789 54.72 73.9809 2.31361 73.9789C1.84605 73.9789 1.37245 73.9063 0.90893 73.9466C0.370839 73.993 0.108847 73.7773 0.0201728 73.2695C-0.072532 72.7293 0.12497 72.3525 0.648953 72.2013C0.896838 72.1288 1.17294 72.1267 1.43694 72.1267C54.2101 72.1267 106.983 72.1308 159.759 72.1489C160.204 72.1489 160.581 71.9635 161 71.9212V73.5335Z" fill="white"/>
<path d="M36.441 110C35.2036 108.426 33.5974 108.908 33.6397 106.13C33.5289 103.381 34.2483 100.786 34.6232 98.1051C32.9424 99.9553 32.1947 102.235 31.4309 104.546C31.2354 105.234 30.7679 105.284 30.2096 105.08C27.7006 104.169 27.2894 103.148 27.5474 100.463C28.0008 95.733 29.2403 91.1843 30.4414 86.6295C31.0319 85.0112 31.7574 79.7631 34.0831 80.2085C34.6675 80.3314 35.2621 80.4846 35.7941 80.8252C37.0315 81.6152 37.092 81.6354 36.5519 82.9655C34.6333 87.6614 33.0996 92.6092 31.8118 97.43C31.8924 97.4743 31.971 97.5187 32.0516 97.563C33.6397 95.4106 35.4031 93.3629 36.6103 90.9626C36.9771 90.1061 37.4608 90.6442 38.0371 90.8538C40.1472 91.4604 40.4031 91.9925 39.7864 94.02C38.8735 98.1535 35.7115 106.312 37.4446 110H36.439H36.441Z" fill="white"/>
<path d="M31.7071 17.2296C39.5971 23.7856 48.5632 27.1654 53.2065 25.3012C50.9433 24.8377 48.9885 23.8642 47.0598 22.8303C46.1348 22.3345 46.0884 22.1572 46.822 21.4296C48.6721 19.5916 50.8345 18.3562 53.394 17.6991C55.762 17.0905 58.2408 16.8305 60.4597 15.6938C60.9776 15.4278 61.4089 15.061 61.82 14.6297C63.402 12.971 64.9639 11.2902 66.943 10.0628C70.105 8.10186 73.662 8.42633 76.161 11.6308C76.5258 12.0984 76.9893 12.4813 77.3178 12.9932C77.596 13.4265 78.0454 13.3781 78.4726 13.2149C80.4194 12.4692 82.3481 12.4128 84.2888 13.2713C84.9237 13.5515 85.3428 13.2189 85.7983 12.6687C86.9753 11.2438 88.1381 9.66983 89.9781 9.10754C92.2715 8.40618 94.4319 9.01684 96.3828 10.3631C97.9809 11.4676 99.3796 12.8098 100.649 14.2609C102.084 15.8994 104.001 16.4557 105.978 16.9172C108.886 17.5964 111.875 18.0559 114.321 19.9685C115.055 20.5408 115.758 21.1858 116.341 21.9053C116.858 22.5462 116.03 22.7799 115.718 22.9331C114.13 23.709 112.485 24.3721 110.877 25.1138C110.49 25.2911 110.077 25.0614 109.708 25.2992C109.867 25.7123 110.224 25.533 110.48 25.5531C116.296 26.0126 121.476 24.2129 126.216 20.9862C127.729 19.9564 129.168 18.8056 130.565 17.6226C131.179 17.1026 131.337 17.55 131.401 17.9148C131.818 20.2547 132.322 22.5764 132.655 24.9344C133.241 29.1042 133.457 33.2922 133.193 37.4762C133.056 39.6427 133.092 41.8234 132.709 43.996C132.497 45.2012 132.348 46.4648 132.193 47.7002C132.056 48.7865 131.633 49.8507 131.306 50.8866C130.49 53.4804 129.22 55.9049 127.745 58.2166C125.176 62.2453 121.578 64.8069 117.076 66.3285C114.053 67.3503 110.992 67.5982 107.86 67.568C103.219 67.5216 99.2929 65.6916 95.6855 62.8842C92.9245 60.7378 90.8225 58.142 89.3614 54.9738C88.7205 53.5812 88.4404 52.0878 87.991 50.6427C87.7935 50.0079 87.5234 49.766 86.9007 49.7539C85.5041 49.7257 84.2425 50.3243 82.9124 50.5964C81.1772 50.9511 79.5367 50.7838 77.9103 50.1671C77.6705 50.0764 77.4206 50.0079 77.1768 49.9313C75.4577 49.3952 75.0849 49.6733 74.6596 51.5214C73.9905 54.4296 72.7511 57.0617 70.8225 59.3754C68.0615 62.6867 64.6636 65.0729 60.631 66.5341C58.0937 67.4531 55.4516 67.6325 52.7551 67.5942C48.5914 67.5377 44.7543 66.4071 41.2315 64.2889C38.537 62.6685 36.431 60.3952 34.7825 57.6926C32.7329 54.3309 31.298 50.7213 30.514 46.882C30.2903 45.7917 30.256 44.5824 30.0122 43.5244C29.6152 41.7891 30.0787 40.0619 29.6454 38.3549C29.4439 37.5568 29.6857 36.6499 29.7018 35.7913C29.7462 33.268 29.6454 30.7327 29.851 28.2215C30.0505 25.7788 30.5725 23.3644 30.9231 20.9338C31.0984 19.7166 31.3866 18.5295 31.7091 17.2275L31.7071 17.2296ZM52.6483 64.4844C58.2327 64.6477 62.612 62.8016 66.2739 59.2504C70.0022 55.6328 71.7314 51.1425 71.8664 45.969C72.1284 35.8094 63.1945 26.9578 52.9607 27.1876C43.1682 27.4093 34.6394 35.6079 34.6253 45.971C34.6132 55.7235 42.9626 64.8613 52.6483 64.4824V64.4844ZM109.402 64.4643C112.727 64.6718 115.891 63.769 118.846 62.0559C121.784 60.3509 124.047 57.9969 125.796 55.0766C127.546 52.1603 128.201 48.9558 128.158 45.6748C128.027 35.4628 119.902 27.2239 109.261 27.2017C99.5287 27.1836 90.9051 35.5414 90.9616 46.0597C91.016 56.1367 99.442 64.7807 109.4 64.4643H109.402ZM81.2981 33.4434C78.128 33.1693 75.6915 36.3334 75.6975 38.7983C75.7036 41.8717 78.2912 44.5361 81.2396 44.5038C84.4642 44.4676 86.8402 42.1579 86.9208 38.9575C86.9974 35.9082 84.5347 33.2983 81.2981 33.4454V33.4434Z" fill="white"/>
<path d="M73.2005 96.7145C73.3134 90.3439 75.0425 84.729 78.6882 79.7933C79.9155 77.9936 81.7797 76.5385 84.0268 77.6751C85.9615 78.1548 87.9486 78.7312 89.0228 80.5652C91.4512 84.7612 90.0022 89.8622 88.6943 94.2054C87.0881 98.2563 84.0631 107.92 78.2126 105.459C73.6882 103.799 73.1481 101.013 73.2005 96.7145ZM77.213 101.199C77.0155 103.172 78.7406 103.434 79.6455 101.858C81.4129 99.6247 82.5072 97.0672 83.2791 94.3525C84.3311 90.233 85.0687 85.9705 85.0828 81.714C85.2239 80.8615 84.4802 80.5471 83.9804 81.2787C80.8486 84.4932 78.267 90.7127 77.213 101.199Z" fill="white"/>
<path d="M18.0331 94.808C16.3946 98.0648 15.5885 101.66 14.2644 105.054C14.0246 105.739 13.6437 106.014 12.9182 105.59C11.8098 104.943 10.5623 104.492 10.0665 103.119C9.13343 99.5885 9.69168 95.9285 9.56068 92.331C9.27451 87.7521 9.85895 83.1751 9.66346 78.5941C9.63122 77.9008 9.98793 77.8968 10.4434 77.9754C12.2753 78.2858 13.2971 79.5212 13.2991 81.4096C13.4039 86.4481 13.2084 91.4785 12.9061 96.5069C12.892 96.8193 12.7993 97.1619 13.1036 97.6053C15.1149 93.8587 17.1302 90.2592 18.5289 86.2546C18.6236 85.9664 18.8211 85.9765 18.9863 86.045C19.9335 86.5227 21.6647 86.692 21.7614 88.002C21.7211 91.1037 20.9976 93.8869 21.175 97.039C24.2725 90.7731 25.2741 83.5963 28.5994 77.3426C29.0811 76.3712 29.4096 76.3167 30.6671 76.9617C31.7312 77.5078 31.7635 77.6671 31.2677 78.6889C30.3608 80.5551 29.8368 82.5604 29.1456 84.5053C27.1867 90.9928 24.601 97.426 23.7647 104.163C23.8271 104.841 23.2749 104.907 22.7893 104.691C18.7626 103.105 18.0915 98.6674 18.0331 94.812V94.808Z" fill="white"/>
<path d="M116.75 104.669C113.801 104.502 112.794 104.081 112.872 99.5542C111.506 100.542 111.052 103.055 108.995 102.11C107.868 101.676 106.373 101.549 106.113 99.9855C105.587 96.7226 107.038 93.5302 109.349 91.2448C111.782 88.5744 113.997 91.9582 114.39 90.2492C115.742 87.5586 116.588 78.6264 121.175 81.8994C121.484 82.1634 121.417 82.4899 121.26 82.8083C118.37 89.2132 115.278 97.6255 116.752 104.671L116.75 104.669ZM112.959 92.3693C111.195 93.8607 110.484 95.8136 109.746 98.0346C110.986 97.3131 113.154 93.4093 112.959 92.3693Z" fill="white"/>
<path d="M113.293 87.9758C112.209 88.1028 111.25 87.2926 110.105 87.7944C108.608 88.4534 106.008 87.5909 105.867 89.8259C105.053 95.0659 103.622 100.248 103.618 105.578C103.644 105.969 104.214 106.469 103.704 106.713C101.242 106.675 99.8794 103.831 100.442 101.302C101.076 97.7585 101.218 94.1328 101.995 90.6119C102.207 88.5804 100.875 91.4826 97.1748 88.7437C95.1313 87.609 100.077 86.7323 100.792 86.6497C102.693 86.3393 102.814 86.2143 103.064 84.3219C103.267 82.7741 103.62 81.2444 104.317 79.8215C104.821 78.4732 106.429 79.8699 107.294 80.1117C107.84 80.2871 107.771 80.926 107.654 81.3431C107.32 82.5342 107.34 83.7898 106.911 84.9688C106.691 85.5714 106.766 86.1317 107.727 86.033C109.065 85.8072 112.789 86.7303 113.295 87.9758H113.293Z" fill="white"/>
<path d="M81.4411 66.4333C79.3714 64.1962 77.9486 61.6205 76.6528 58.9481C76.2577 58.1339 76.0199 57.2693 75.76 56.437C75.5947 55.9089 76.161 55.1652 76.6366 54.7581C77.8015 53.7585 79.1014 53.1237 80.758 53.1458C82.6866 53.172 84.5286 53.2486 86.1469 54.4578C86.814 54.9577 87.3481 56.2697 87.0579 56.9972C85.9293 59.8349 84.7161 62.6262 82.7431 65.0165C82.338 65.5082 81.949 66.002 81.4391 66.4333H81.4411Z" fill="white"/>
<path d="M92.465 99.9109C93.1703 99.7779 93.3477 99.1068 93.6822 98.6735C95.4577 96.3659 97.0861 93.9756 97.6504 91.019C97.7673 90.4064 98.1603 90.0275 98.9724 90.4285C100.581 91.2246 100.677 91.1883 100.204 93.0284C99.4299 96.2994 98.2106 99.6147 98.4424 103.015C98.5069 103.647 98.2832 103.625 97.866 103.486C96.2074 103.019 95.7318 101.942 95.8124 100.235C94.5327 101.068 93.7225 102.847 92.0256 102.14C90.2642 101.564 89.6536 100.598 89.5407 98.7178C89.3533 95.5738 90.7116 92.8732 91.7737 90.0758C91.8825 89.7896 92.1042 89.7997 92.2332 89.8703C92.7028 90.1242 93.2812 90.1 93.7004 90.36C94.2183 90.6784 94.9902 90.7228 94.5387 91.9461C93.7084 94.5077 92.5798 97.2123 92.4609 99.9109H92.465Z" fill="white"/>
<path d="M152.145 88.6126C158.382 89.3079 156.393 93.1311 153.076 96.2711C152.328 97.2768 149.319 96.3739 150.462 95.6242C151.784 94.4593 153.418 92.7664 153.241 90.9082C151.967 90.5293 149.152 94.82 148.598 95.9527C147.842 97.7403 151.185 98.7097 152.201 99.8908C155.17 103.218 149.261 106.018 146.705 103.819C145.514 103.103 146.268 102.333 147.346 102.878C149.591 103.535 150.639 101.628 148.932 100.06C147.628 98.4074 144.228 97.174 145.643 94.6628C146.917 92.3331 149.305 88.7799 152.147 88.6126H152.145Z" fill="white"/>
<path d="M58.2166 104.524C57.1686 105.058 53.9038 102.555 56.036 102.759C57.2996 103.001 59.5064 103.319 58.8635 101.267C58.3174 98.6755 53.5834 97.8814 54.7603 94.9208C55.9453 92.7059 58.7708 88.4272 61.5358 88.651C63.4645 88.7154 66.4371 89.9892 65.2481 92.323C64.321 94.3001 62.1304 98.0487 59.5911 96.2006C59.2102 95.862 59.5044 95.7794 59.7543 95.5698C60.9353 94.5883 61.947 93.4798 62.4488 91.9703C62.9687 90.888 62.1989 90.3902 61.431 91.2972C60.2742 92.4419 59.2585 93.6834 58.3557 95.0498C57.2593 96.7105 57.7148 97.2406 59.3291 98.3672C63.6056 100.34 63.142 104.685 58.2146 104.52L58.2166 104.524Z" fill="white"/>
<path d="M135.847 101.255C136.212 97.4945 136.764 93.6793 137.838 90.0335C138.166 88.5179 139.101 89.2938 140.194 89.4853C142.11 89.8864 140.194 91.1541 140.825 91.6377C142.133 91.15 141.965 88.925 144.476 89.8299C145.617 90.2451 145.798 90.5434 145.51 91.7607C145.113 93.4939 144.668 95.2372 144.299 96.9664C144.025 97.305 144.883 97.95 144.061 98.0809C143.394 98.1858 141.953 96.9725 141.871 96.4324C141.812 96.0454 142.191 95.4267 141.625 95.3138C141.054 95.201 140.994 95.9507 140.841 96.2953C139.835 98.5525 138.983 100.872 138.876 103.383C138.817 105.127 135.542 102.708 135.847 101.255Z" fill="white"/>
<path d="M135.823 94.6649C135.802 96.3115 135.246 98.5405 134.18 100.632C133.438 102.096 131.407 102.64 130.025 101.749C126.721 100.308 126.693 98.5465 127.654 95.2352C127.997 94.159 129.541 90.5454 130.788 90.6724C133.362 91.4584 136.318 90.5797 135.823 94.6669V94.6649ZM130.246 100.332C131.766 99.4938 132.935 95.8661 132.465 93.3045C131.262 95.6121 129.962 97.6839 130.246 100.332Z" fill="white"/>
<path d="M126.59 94.8866C126.522 96.509 126.191 98.8186 124.813 100.854C123.181 103.682 118.878 101.493 118.064 98.9899C117.804 98.0225 117.983 97.1297 118.183 96.2711C118.567 94.8463 120.266 89.9348 122.239 90.8155C124.952 91.4141 126.957 90.8316 126.592 94.8866H126.59ZM123.225 93.7056C122.489 94.8906 120.262 98.9657 121.151 100.096C121.572 100.286 121.826 99.8384 122 99.5582C123.108 97.7645 123.531 95.8116 123.225 93.7056Z" fill="white"/>
<path d="M48.9179 94.7596C49.1476 96.65 48.4161 98.5647 47.483 100.427C46.2939 103.117 43.3697 102.164 41.5358 100.679C40.0001 99.5159 40.1633 97.9318 40.5402 96.384C40.8425 95.0841 42.5857 90.6784 44.0166 90.6684C46.955 91.5088 49.454 90.5515 48.9199 94.7596H48.9179ZM45.78 93.5121C44.5124 95.3723 43.6015 97.3675 43.2931 99.6086C43.1702 100.451 44.0227 100.483 44.2645 99.7961C45.4757 97.8895 45.8667 95.7633 45.78 93.5121Z" fill="white"/>
<path d="M55.3347 78.707C54.8389 80.795 53.9985 82.4718 53.2548 84.4247C53.0815 84.858 52.874 85.2328 52.3218 84.9023C51.7796 84.5778 50.8526 84.4851 51.0602 83.5963C51.4773 81.8087 52.0255 80.0493 52.5455 78.2858C52.8357 77.3003 53.1118 77.2519 54.069 77.7437C54.5991 78.0157 55.1089 78.2515 55.3367 78.709L55.3347 78.707Z" fill="white"/>
<path d="M52.9304 36.8675C58.6196 36.7043 61.9449 40.8036 61.9711 45.5135C61.9993 50.6246 58.015 54.083 53.2911 54.1898C48.0694 54.3087 44.5708 50.1389 44.5305 45.4128C44.4922 40.8398 48.152 36.7385 52.9324 36.8695L52.9304 36.8675ZM49.7139 44.925C51.2697 44.925 52.3399 43.8025 52.3419 42.166C52.3419 40.604 51.2637 39.4835 49.7562 39.4855C47.9888 39.4855 46.9005 40.5295 46.9046 42.2184C46.9086 43.8448 48.0291 44.923 49.7139 44.925ZM49.5204 47.3536C49.5204 46.5817 48.8111 45.9368 47.9485 45.9227C47.2028 45.9106 46.5055 46.5958 46.4995 47.3455C46.4934 48.2504 47.1565 48.9578 48.0069 48.9538C48.8554 48.9498 49.5204 48.2484 49.5184 47.3536H49.5204Z" fill="white"/>
<path d="M118.142 45.5317C118.386 50.5238 114.057 54.0628 109.555 54.2341C104.716 54.4175 100.685 49.8083 100.81 45.2878C100.931 40.856 104.484 36.6922 109.756 36.8232C114.281 36.936 118.489 40.8096 118.144 45.5337L118.142 45.5317ZM105.899 44.9271C107.352 45.0923 108.704 43.8791 108.672 42.1861C108.646 40.7935 107.737 39.4029 105.952 39.4734C104.239 39.5399 103.245 40.5013 103.247 42.2546C103.249 43.8206 104.347 44.9271 105.899 44.9271ZM104.128 45.9267C103.315 45.9428 102.834 46.5132 102.84 47.4523C102.846 48.325 103.475 48.9699 104.303 48.9498C105.214 48.9296 105.885 48.2666 105.863 47.412C105.841 46.5474 105.091 45.9065 104.128 45.9267Z" fill="white"/>
</g>
<defs>
<clipPath id="clip0_1772_5807">
<rect width="161" height="110" fill="white"/>
</clipPath>
</defs>
</svg>
