<svg width="32" height="33" viewBox="0 0 32 33" fill="none" xmlns="http://www.w3.org/2000/svg">
<path d="M23.9734 14.537V19.8704C23.9734 20.217 23.9601 20.5504 23.9201 20.8704C23.6134 24.4704 21.4934 26.257 17.5868 26.257H17.0534C16.7201 26.257 16.4001 26.417 16.2001 26.6837L14.6001 28.817C13.8934 29.7637 12.7467 29.7637 12.0401 28.817L10.4401 26.6837C10.2667 26.457 9.88008 26.257 9.58675 26.257H9.05343C4.80009 26.257 2.66675 25.2037 2.66675 19.8704V14.537C2.66675 10.6304 4.46676 8.51037 8.05343 8.2037C8.37343 8.1637 8.70676 8.15036 9.05343 8.15036H17.5868C21.8401 8.15036 23.9734 10.2837 23.9734 14.537Z" stroke="#1E1E1E" stroke-width="1.5" stroke-miterlimit="10" stroke-linecap="round" stroke-linejoin="round"/>
<path d="M29.3066 9.20369V14.537C29.3066 18.457 27.5065 20.5637 23.9199 20.8704C23.9599 20.5504 23.9732 20.217 23.9732 19.8704V14.537C23.9732 10.2837 21.8399 8.15035 17.5865 8.15035H9.05322C8.70656 8.15035 8.37322 8.16369 8.05322 8.20369C8.35989 4.61703 10.4799 2.81702 14.3866 2.81702H22.9199C27.1732 2.81702 29.3066 4.95036 29.3066 9.20369Z" stroke="#1E1E1E" stroke-width="1.5" stroke-miterlimit="10" stroke-linecap="round" stroke-linejoin="round"/>
<path d="M17.9939 17.817H18.0059" stroke="#1E1E1E" stroke-width="2" stroke-linecap="round" stroke-linejoin="round"/>
<path d="M13.3274 17.817H13.3394" stroke="#1E1E1E" stroke-width="2" stroke-linecap="round" stroke-linejoin="round"/>
<path d="M8.66067 17.817H8.67267" stroke="#1E1E1E" stroke-width="2" stroke-linecap="round" stroke-linejoin="round"/>
</svg>
