<svg width="43" height="43" viewBox="0 0 43 43" fill="none" xmlns="http://www.w3.org/2000/svg">
<ellipse cx="21.4244" cy="21.1902" rx="21.4244" ry="21.1902" fill="white"/>
<path fill-rule="evenodd" clip-rule="evenodd" d="M23.9178 16.5928C24.2664 16.248 24.8316 16.248 25.1803 16.5928L29.1973 20.566C29.5459 20.9108 29.5459 21.4698 29.1973 21.8146L25.1803 25.7878C24.8316 26.1326 24.2664 26.1326 23.9178 25.7878C23.5692 25.443 23.5692 24.884 23.9178 24.5392L26.411 22.0733H14.2832C13.7902 22.0733 13.3905 21.678 13.3905 21.1903C13.3905 20.7027 13.7902 20.3074 14.2832 20.3074H26.411L23.9178 17.8415C23.5692 17.4967 23.5692 16.9376 23.9178 16.5928Z" fill="#424551"/>
</svg>
