<svg width="26" height="26" viewBox="0 0 26 26" fill="none" xmlns="http://www.w3.org/2000/svg">
<path d="M13 6.97668V10.5842" stroke="#1E1E1E" stroke-width="1.5" stroke-miterlimit="10" stroke-linecap="round"/>
<path d="M13.0216 2.16669C9.03489 2.16669 5.80656 5.39502 5.80656 9.38169V11.6567C5.80656 12.3934 5.50322 13.4984 5.12406 14.1267L3.74822 16.4234C2.90322 17.8425 3.48822 19.4242 5.04822 19.9442C10.2266 21.6667 15.8274 21.6667 21.0057 19.9442C22.4682 19.4567 23.0966 17.745 22.3057 16.4234L20.9299 14.1267C20.5507 13.4984 20.2474 12.3825 20.2474 11.6567V9.38169C20.2366 5.41669 16.9866 2.16669 13.0216 2.16669Z" stroke="#1E1E1E" stroke-width="1.5" stroke-miterlimit="10" stroke-linecap="round"/>
<path d="M16.6076 20.3883C16.6076 22.3708 14.9826 23.9958 13.0001 23.9958C12.0142 23.9958 11.1042 23.5841 10.4542 22.9341C9.80424 22.2841 9.39258 21.3741 9.39258 20.3883" stroke="#1E1E1E" stroke-width="1.5" stroke-miterlimit="10"/>
</svg>
