<svg width="50" height="50" viewBox="0 0 50 50" fill="none" xmlns="http://www.w3.org/2000/svg">
<rect x="0.563828" width="48.9362" height="50" rx="12" fill="#F38001"/>
<g clip-path="url(#clip0_486_2237)">
<path d="M25.388 20.6263L29.1742 22.0918V13H34.2519C35.6607 13 36.776 14.1664 36.776 15.572V31.0639C36.776 32.4995 35.6314 33.636 34.2519 33.636H31.7277C31.7277 30.077 28.8807 27.176 25.388 27.176C21.8953 27.176 19.0483 30.077 19.0483 33.636H16.5241C15.1153 33.636 14 32.4696 14 31.0639V15.572C14 14.1365 15.1447 13 16.5241 13H21.6018V22.0619L25.388 20.5964V20.6263Z" fill="white"/>
<path d="M27.9415 13H22.8639V20.2076L25.388 19.2506L27.9122 20.2076V13H27.9415Z" fill="white"/>
<path d="M25.4174 28.4919C22.6291 28.4919 20.3691 30.7948 20.3691 33.636C20.3691 36.4772 22.6291 38.78 25.4174 38.78C28.2057 38.78 30.4363 36.4473 30.4363 33.636C30.4363 30.8247 28.1763 28.4919 25.4174 28.4919ZM26.0044 31.2733V34.2939C26.0044 34.5033 25.887 34.7126 25.7109 34.8323L24.1259 35.7295C23.8618 35.9388 23.4802 35.879 23.2748 35.5799C23.0987 35.3108 23.1574 34.8921 23.4215 34.7126C23.4215 34.7126 23.4802 34.6528 23.5096 34.6528L24.7716 33.8752V31.2135C24.7716 30.8845 25.0358 30.6154 25.3587 30.5854C25.7109 30.5854 25.975 30.8546 25.975 31.1836L26.0044 31.2733Z" fill="white"/>
</g>
<defs>
<clipPath id="clip0_486_2237">
<rect width="22.8054" height="25.78" fill="white" transform="translate(14 13)"/>
</clipPath>
</defs>
</svg>
