<svg width="43" height="43" viewBox="0 0 43 43" fill="none" xmlns="http://www.w3.org/2000/svg">
<ellipse cx="21.4244" cy="21.1902" rx="21.4244" ry="21.1902" fill="white"/>
<path fill-rule="evenodd" clip-rule="evenodd" d="M19.8239 25.7878C19.4753 26.1326 18.9101 26.1326 18.5614 25.7878L14.5444 21.8146C14.1958 21.4698 14.1958 20.9108 14.5444 20.566L18.5614 16.5928C18.9101 16.248 19.4753 16.248 19.8239 16.5928C20.1725 16.9376 20.1725 17.4966 19.8239 17.8414L17.3307 20.3074H29.4585C29.9515 20.3074 30.3512 20.7027 30.3512 21.1903C30.3512 21.6779 29.9515 22.0732 29.4585 22.0732H17.3307L19.8239 24.5391C20.1725 24.8839 20.1725 25.443 19.8239 25.7878Z" fill="#424551"/>
</svg>
