<svg width="17" height="18" viewBox="0 0 17 18" fill="none" xmlns="http://www.w3.org/2000/svg">
<path d="M16.8986 6.64918C16.8463 6.4949 16.7499 6.35934 16.6213 6.25923C16.4928 6.15912 16.3377 6.09884 16.1753 6.08584L11.4245 5.70834L9.36865 1.15751C9.30317 1.01094 9.19668 0.886447 9.06202 0.79906C8.92735 0.711673 8.77028 0.665127 8.60975 0.665039C8.44922 0.664951 8.29209 0.711325 8.15733 0.798564C8.02257 0.885802 7.91595 1.01018 7.85031 1.15668L5.79448 5.70834L1.04364 6.08584C0.884024 6.09849 0.731427 6.15685 0.604107 6.25395C0.476788 6.35105 0.380139 6.48278 0.325723 6.63337C0.271306 6.78396 0.261426 6.94704 0.297266 7.1031C0.333105 7.25916 0.413146 7.40158 0.527812 7.51334L4.03864 10.9358L2.79698 16.3125C2.75928 16.4753 2.77136 16.6456 2.83166 16.8014C2.89196 16.9572 2.9977 17.0913 3.13515 17.1862C3.27259 17.2812 3.43541 17.3326 3.60246 17.3339C3.76952 17.3352 3.9331 17.2862 4.07198 17.1933L8.60948 14.1683L13.147 17.1933C13.2889 17.2876 13.4563 17.3361 13.6267 17.3324C13.797 17.3286 13.9621 17.2728 14.0998 17.1724C14.2375 17.0721 14.3411 16.9319 14.3968 16.7709C14.4524 16.6099 14.4575 16.4356 14.4111 16.2717L12.887 10.9383L16.667 7.53668C16.9145 7.31334 17.0053 6.96501 16.8986 6.64918Z" fill="#F38001"/>
</svg>
