<svg width="19" height="28" viewBox="0 0 19 28" fill="none" xmlns="http://www.w3.org/2000/svg">
<path fill-rule="evenodd" clip-rule="evenodd" d="M7.57008 8.33846C7.57008 7.13846 8.52756 6.67692 10.1134 6.67692C12.3874 6.67692 15.2598 7.38462 17.5339 8.64615V1.41538C15.0504 0.4 12.5969 0 10.1134 0C4.03937 0 0 3.26154 0 8.70769C0 17.2 11.3701 15.8462 11.3701 19.5077C11.3701 20.9231 10.1732 21.3846 8.49764 21.3846C6.01417 21.3846 2.84252 20.3385 0.329133 18.9231V26.2462C3.11181 27.4769 5.92441 28 8.49764 28C14.7213 28 19 24.8308 19 19.3231C18.9701 10.1538 7.57008 11.7846 7.57008 8.33846Z" fill="white"/>
</svg>
