<svg width="49" height="50" viewBox="0 0 49 50" fill="none" xmlns="http://www.w3.org/2000/svg">
<rect x="0.0638428" width="48.9362" height="50" rx="12" fill="#F38001"/>
<g clip-path="url(#clip0_486_2245)">
<path d="M18.1245 19.9048C17.8584 20.5586 17.4148 21.3285 16.6592 22.0801C14.7961 23.9346 12 25.7892 12 30.43C12 35.0709 15.7261 38.78 21.0828 38.78C23.3833 38.78 25.3779 38.1078 26.9106 36.9713V36.403C26.9106 35.7217 27.446 35.1504 28.1129 35.0893C28.1037 35.0251 28.0976 34.9579 28.0976 34.8876V33.8427C28.0976 33.7664 28.1037 33.6961 28.1159 33.6289C27.4429 33.5647 26.9076 32.9903 26.9076 32.3029V31.1419C26.9076 30.4606 27.4399 29.8832 28.1068 29.8159C28.1006 29.7701 28.0945 29.7243 28.0945 29.6785V28.4991C28.0945 28.4503 28.0945 28.4075 28.1006 28.3617C27.4337 28.2914 26.9014 27.717 26.9014 27.0357V25.8747C26.9014 25.2239 27.3848 24.674 28.0089 24.564C27.1859 23.6077 26.2651 22.8409 25.5003 22.0771C24.7447 21.3255 24.3011 20.5556 24.0349 19.9017C23.8055 19.9903 23.5608 20.0362 23.3038 20.0362H18.8496C18.5926 20.0362 18.3479 19.9903 18.1184 19.9017L18.1245 19.9048ZM21.0859 24.0232C21.349 24.0232 21.5631 24.2371 21.5631 24.4998V25.505H21.7497C22.5696 25.4195 23.3283 26.0091 23.4384 26.831C23.4721 27.0937 23.2885 27.332 23.0285 27.3657C22.7654 27.4023 22.5268 27.219 22.49 26.9563C22.3707 26.5132 22.0189 26.4582 21.5631 26.4582V28.7008H21.7681C22.6858 28.7008 23.4415 29.4554 23.4415 30.372V31.1786C23.4415 32.0951 22.6858 32.8498 21.7681 32.8498H21.5631V33.855C21.5631 34.1177 21.349 34.3316 21.0859 34.3316C20.8228 34.3316 20.6086 34.1177 20.6086 33.855V32.8498C19.5501 32.8498 18.8282 32.2785 18.7333 31.5238C18.6997 31.2611 18.8832 31.0228 19.1433 30.9892C19.4033 30.9555 19.645 31.1389 19.6786 31.3986C19.7735 31.8507 20.1497 31.924 20.6056 31.8966V29.6571H20.4006C19.4828 29.6571 18.7272 28.9024 18.7272 27.9859V27.1762C18.7272 26.2597 19.4828 25.505 20.4006 25.505H20.6056V24.4998C20.6056 24.2371 20.8197 24.0232 21.0828 24.0232H21.0859ZM20.4037 26.4582C20.0029 26.4582 19.6878 26.7729 19.6878 27.1732V27.9828C19.6878 28.383 20.0029 28.6977 20.4037 28.6977H20.6086V26.4552H20.4037V26.4582ZM21.5662 29.654V31.8935H21.7711C22.1719 31.8935 22.487 31.5788 22.487 31.1786V30.372C22.487 29.9718 22.1719 29.6571 21.7711 29.6571H21.5662V29.654Z" fill="white"/>
<path d="M18.8557 16.819H23.3099C23.9371 16.819 24.4449 17.3231 24.4449 17.9525C24.4449 18.5819 23.9401 19.086 23.3099 19.086H18.8557C18.2286 19.086 17.7207 18.5819 17.7207 17.9525C17.7207 17.3231 18.2255 16.819 18.8557 16.819Z" fill="white"/>
<path d="M24.0166 13.0092L22.5757 13.4369C21.5968 13.7271 20.5627 13.7271 19.5838 13.4369L18.4244 13.0917C18.1368 12.9633 17.837 13.2383 17.9257 13.5438C18.2469 14.2954 18.611 15.0776 18.7945 15.8658C18.8159 15.8658 18.8343 15.8658 18.8557 15.8658H23.3099C23.3099 15.8658 23.3344 15.8658 23.3466 15.8658C23.6036 14.934 23.9738 14.1518 24.3133 13.3575C24.3898 13.1222 24.1696 12.9572 24.0166 13.0092Z" fill="white"/>
<path d="M27.5071 36.4061V37.5946C27.5071 37.9948 27.8284 38.3156 28.2291 38.3156H35.8649C36.2657 38.3156 36.5869 37.9948 36.5869 37.5946V36.4061C36.5869 36.3633 36.5808 36.3205 36.5747 36.2808H29.4865C29.0184 36.2808 28.6023 36.0425 28.3484 35.682C27.706 35.682 27.5041 36.0456 27.5041 36.403L27.5071 36.4061Z" fill="white"/>
<path d="M27.5041 31.1419V32.3029C27.5041 32.7093 27.8314 33.0392 28.2414 33.0392H35.8527C36.2596 33.0392 36.59 32.7123 36.59 32.3029V31.1419C36.59 31.0931 36.5838 31.0472 36.5777 31.0045H29.4253C28.9695 31.0045 28.5626 30.7662 28.3209 30.4087C27.7152 30.4087 27.5041 30.7906 27.5041 31.145V31.1419Z" fill="white"/>
<path d="M36.9601 27.7751C36.7185 28.1326 36.3116 28.3709 35.8527 28.3709H28.7094C28.7033 28.4136 28.6972 28.4564 28.6972 28.4992V29.6785C28.6972 30.0818 29.0215 30.4056 29.4253 30.4056H37.0519C37.4557 30.4056 37.78 30.0818 37.78 29.6785V28.4992C37.78 28.0959 37.4557 27.772 37.0519 27.772H36.9601V27.7751Z" fill="white"/>
<path d="M30.132 17.7936C30.0004 17.7936 29.878 17.8486 29.7893 17.9403L28.3576 19.4251C28.1741 19.6146 28.1802 19.917 28.3699 20.0973C28.4616 20.1859 28.584 20.2348 28.7094 20.2317C28.8349 20.2317 28.9572 20.1767 29.0459 20.0851L29.6547 19.4526V22.6026C29.6547 22.7278 29.7037 22.85 29.7954 22.9417C29.8842 23.0303 30.0065 23.0822 30.135 23.0822C30.2635 23.0822 30.3828 23.0334 30.4746 22.9417C30.5633 22.8531 30.6153 22.7309 30.6153 22.6026V19.4526L31.2241 20.0851C31.3128 20.1767 31.4321 20.2287 31.5606 20.2317C31.686 20.2317 31.8084 20.1859 31.9002 20.0973C32.0899 19.914 32.096 19.6115 31.9124 19.4221L30.4807 17.9372C30.392 17.8456 30.2666 17.7906 30.1381 17.7906L30.132 17.7936Z" fill="white"/>
<path d="M34.9105 17.7784C34.7453 17.7784 34.5954 17.8639 34.5067 18.0014L33.1331 19.4252C32.9495 19.6146 32.9556 19.917 33.1453 20.0973C33.2371 20.1859 33.3595 20.2348 33.4849 20.2317C33.6103 20.2317 33.7327 20.1767 33.8214 20.0851L34.4302 19.4526V22.5445C34.4302 22.6729 34.4791 22.792 34.5709 22.8837C34.6596 22.9723 34.782 23.0242 34.9105 23.0242C35.039 23.0242 35.1583 22.9753 35.25 22.8837C35.3418 22.792 35.3908 22.6729 35.3908 22.5445V19.4526L35.9996 20.0851C36.0883 20.1767 36.2076 20.2287 36.3361 20.2317C36.4615 20.2317 36.5839 20.1859 36.6756 20.0973C36.8653 19.914 36.8714 19.6115 36.6879 19.4221L35.3204 18.0045C35.2348 17.8609 35.0787 17.7753 34.9105 17.7753V17.7784Z" fill="white"/>
<path d="M36.951 33.0515C36.7093 33.4028 36.3055 33.635 35.8527 33.635H28.7278C28.7094 33.7022 28.7003 33.7725 28.7003 33.8428V34.8876C28.7003 35.3276 29.0551 35.682 29.4957 35.682H36.9877C37.4282 35.682 37.7831 35.3276 37.7831 34.8876V33.8428C37.7831 33.3814 37.4068 33.0484 36.954 33.0484L36.951 33.0515Z" fill="white"/>
<path d="M28.2414 25.1415H35.8527C36.2596 25.1415 36.59 25.4684 36.59 25.8778V27.0388C36.59 27.4451 36.2626 27.7751 35.8527 27.7751H28.2414C27.8345 27.7751 27.5041 27.4482 27.5041 27.0388V25.8778C27.5041 25.4714 27.8314 25.1415 28.2414 25.1415Z" fill="white"/>
</g>
<defs>
<clipPath id="clip0_486_2245">
<rect width="25.78" height="25.78" fill="white" transform="translate(12 13)"/>
</clipPath>
</defs>
</svg>
