<svg width="49" height="50" viewBox="0 0 49 50" fill="none" xmlns="http://www.w3.org/2000/svg">
<rect x="0.0638275" width="48.9362" height="50" rx="12" fill="#F38001"/>
<path fill-rule="evenodd" clip-rule="evenodd" d="M34.2976 14.5046V35.2754C34.2976 36.6597 33.174 37.78 31.793 37.78H16.5046C15.1203 37.78 14 36.6565 14 35.2754V14.5046C14 13.1235 15.1235 12 16.5046 12H31.7897C33.174 12 34.2943 13.1235 34.2943 14.5046H34.2976ZM24.2534 34.4352H31.2328C31.4614 34.4352 31.6513 34.2485 31.6513 34.0199C31.6513 33.7913 31.4614 33.6046 31.2328 33.6046H24.2534C24.0248 33.6046 23.8349 33.7913 23.8349 34.0199C23.8349 34.2485 24.0248 34.4352 24.2534 34.4352ZM24.2534 32.2106H31.2328C31.4614 32.2106 31.6513 32.0239 31.6513 31.7954C31.6513 31.5668 31.4614 31.3801 31.2328 31.3801H24.2534C24.0248 31.3801 23.8349 31.5668 23.8349 31.7954C23.8349 32.0271 24.0248 32.2106 24.2534 32.2106ZM18.3589 32.069L18.3718 33.5917C18.375 33.8203 18.5617 34.0038 18.7903 34.0038C18.8708 34.0038 18.9384 33.9812 19.0028 33.9458L22.3186 31.966C22.5118 31.8501 22.5794 31.5925 22.4603 31.3962C22.3412 31.1998 22.0868 31.1354 21.8937 31.2545L19.1959 32.8642V32.0658C19.1895 31.8372 19.0028 31.6537 18.7742 31.6537C18.5456 31.6537 18.3589 31.8404 18.3589 32.069ZM20.5255 33.4662V34.4319H17.48V31.3865H20.9408C21.1693 31.3865 21.3593 31.1998 21.3593 30.9712C21.3593 30.7427 21.1693 30.5559 20.9408 30.5559H17.0615C16.833 30.5559 16.6495 30.7427 16.6495 30.9712V34.8505C16.6495 35.079 16.833 35.2657 17.0615 35.2657H20.9408C21.1693 35.2657 21.3593 35.079 21.3593 34.8505V33.4694C21.3593 33.2408 21.1693 33.0541 20.9408 33.0541C20.7122 33.0509 20.5255 33.2376 20.5255 33.4662ZM24.2534 26.4224H31.2328C31.4614 26.4224 31.6513 26.2357 31.6513 26.0071C31.6513 25.7785 31.4614 25.5918 31.2328 25.5918H24.2534C24.0248 25.5918 23.8349 25.7785 23.8349 26.0071C23.8349 26.2357 24.0248 26.4224 24.2534 26.4224ZM24.2534 24.1979H31.2328C31.4614 24.1979 31.6513 24.0111 31.6513 23.7826C31.6513 23.554 31.4614 23.3673 31.2328 23.3673H24.2534C24.0248 23.3673 23.8349 23.554 23.8349 23.7826C23.8349 24.0111 24.0248 24.1979 24.2534 24.1979ZM18.3589 24.053L18.3718 25.5757C18.375 25.8043 18.5617 25.9878 18.7903 25.9878C18.8708 25.9878 18.9384 25.9652 19.0028 25.9298L22.3186 23.95C22.5118 23.8341 22.5794 23.5765 22.4603 23.3802C22.3412 23.1838 22.0868 23.1194 21.8937 23.2385L19.1959 24.8482V24.0498C19.1895 23.8212 19.0028 23.6377 18.7742 23.6377C18.5456 23.6377 18.3589 23.8244 18.3589 24.053ZM20.5255 25.4502V26.4159H17.48V23.3705H20.9408C21.1693 23.3705 21.3593 23.1838 21.3593 22.9552C21.3593 22.7266 21.1693 22.5399 20.9408 22.5399H17.0615C16.833 22.5399 16.6495 22.7266 16.6495 22.9552V26.8344C16.6495 27.063 16.833 27.2497 17.0615 27.2497H20.9408C21.1693 27.2497 21.3593 27.063 21.3593 26.8344V25.4534C21.3593 25.2248 21.1693 25.0381 20.9408 25.0381C20.7122 25.0381 20.5255 25.2216 20.5255 25.4502ZM24.2534 18.4064H31.2328C31.4614 18.4064 31.6513 18.2197 31.6513 17.9911C31.6513 17.7625 31.4614 17.5758 31.2328 17.5758H24.2534C24.0248 17.5758 23.8349 17.7625 23.8349 17.9911C23.8349 18.2197 24.0248 18.4064 24.2534 18.4064ZM24.2534 16.1818H31.2328C31.4614 16.1818 31.6513 15.9951 31.6513 15.7666C31.6513 15.538 31.4614 15.3513 31.2328 15.3513H24.2534C24.0248 15.3513 23.8349 15.538 23.8349 15.7666C23.8349 15.9951 24.0248 16.1818 24.2534 16.1818ZM18.3589 16.0402L18.3718 17.5629C18.375 17.7915 18.5617 17.975 18.7903 17.975C18.8708 17.975 18.9384 17.9524 19.0028 17.917L22.3186 15.9372C22.5118 15.8181 22.5794 15.5637 22.4603 15.3674C22.3412 15.171 22.0868 15.1066 21.8937 15.2257L19.1959 16.8354V16.037C19.1895 15.8084 19.0028 15.6249 18.7742 15.6249C18.5456 15.6249 18.3589 15.8116 18.3589 16.0402ZM20.5255 17.4374V18.4031H17.48V15.3577H20.9408C21.1693 15.3577 21.3593 15.171 21.3593 14.9424C21.3593 14.7139 21.1693 14.5271 20.9408 14.5271H17.0615C16.833 14.5271 16.6495 14.7139 16.6495 14.9424V18.8217C16.6495 19.0502 16.833 19.2369 17.0615 19.2369H20.9408C21.1693 19.2369 21.3593 19.0502 21.3593 18.8217V17.4374C21.3593 17.2088 21.1693 17.0221 20.9408 17.0221C20.7122 17.0221 20.5255 17.2088 20.5255 17.4374Z" fill="white"/>
</svg>
