<svg width="40" height="41" viewBox="0 0 40 41" fill="none" xmlns="http://www.w3.org/2000/svg">
<circle cx="20" cy="20.0459" r="20" fill="white"/>
<path opacity="0.4" d="M12.0273 15.0382C12.0273 13.2769 13.4551 11.8491 15.2164 11.8491H24.7837C26.545 11.8491 27.9728 13.2769 27.9728 15.0382V24.6055C27.9728 26.3667 26.545 27.7945 24.7837 27.7945H15.2164C13.4551 27.7945 12.0273 26.3667 12.0273 24.6055V15.0382Z" fill="#FF6600"/>
<path d="M15.2164 27.7947H24.7837C26.545 27.7947 27.9728 26.3669 27.9728 24.6056V21.4166L25.6296 19.7295C24.412 18.8528 22.748 18.9434 21.6328 19.9471L18.3673 22.886C17.2521 23.8897 15.5881 23.9803 14.3705 23.1037L12.0273 21.4166V24.6056C12.0273 26.3669 13.4551 27.7947 15.2164 27.7947Z" fill="#F38001"/>
<circle cx="17.2095" cy="17.0313" r="1.99318" fill="#F38001"/>
</svg>
