<svg width="40" height="40" viewBox="0 0 40 40" fill="none" xmlns="http://www.w3.org/2000/svg">
<rect width="40" height="40" rx="4" fill="#164EA0"/>
<g clip-path="url(#clip0_7517_13685)">
<path d="M8.86226 11C8.92272 11.0425 8.93988 11.0631 8.96055 11.0673C9.33344 11.1427 9.70632 11.2196 10.0808 11.2892C10.4618 11.3603 10.8456 11.4162 11.2256 11.4935C11.7182 11.5933 12.2065 11.713 12.6991 11.814C13.1809 11.9127 13.6665 11.9919 14.1482 12.0906C14.7992 12.2237 15.4466 12.3725 16.098 12.5041C16.616 12.6089 17.1394 12.69 17.657 12.796C18.3072 12.9291 18.9535 13.0821 19.6034 13.2175C20.2071 13.3434 20.8133 13.4574 21.4186 13.5756C22.0782 13.7045 22.7382 13.8315 23.3973 13.9608C23.9734 14.0736 24.5515 14.1781 25.1241 14.3058C25.6717 14.4279 26.2217 14.5495 26.7552 14.719C27.1156 14.8333 27.5197 14.9607 27.7748 15.2098C28.0299 15.4592 28.2741 15.4527 28.5596 15.4576C28.7218 15.4607 28.8853 15.4538 29.0464 15.4691C29.5998 15.5223 30.1638 15.4676 30.7056 15.6424C31.2607 15.8218 31.5785 16.2606 31.6285 16.7816C31.6776 17.2968 31.5267 17.7857 31.355 18.2528C31.1717 18.7512 30.9026 19.2214 30.651 19.6934C30.5535 19.8763 30.4361 20.0962 30.266 20.185C29.862 20.3957 29.4208 20.538 28.9945 20.7079C28.7203 20.8173 28.4465 20.9274 28.1719 21.0353C27.8322 21.1684 27.4916 21.3 27.1507 21.4309C26.8391 21.5506 26.5274 21.6696 26.2154 21.7878C25.8558 21.9239 25.4958 22.0594 25.1358 22.194C24.7816 22.3264 24.4255 22.453 24.0733 22.5895C23.6314 22.7609 23.1933 22.9426 22.7514 23.1151C22.3703 23.2639 21.9861 23.4059 21.6035 23.5516C21.2443 23.6882 20.8858 23.8259 20.527 23.9628C20.2356 24.0738 19.9439 24.1832 19.6533 24.2949C19.3015 24.4299 18.9516 24.5699 18.599 24.7026C18.2214 24.8446 17.8403 24.9773 17.4632 25.1204C17.1067 25.2558 16.7545 25.4019 16.3983 25.5385C16.045 25.6739 15.6885 25.8001 15.3351 25.9355C14.9704 26.0756 14.6104 26.2267 14.2449 26.3651C13.851 26.5143 13.4523 26.6509 13.0584 26.7985C12.5611 26.9848 12.0665 27.1784 11.5696 27.367C11.0251 27.5739 10.479 27.7771 9.9345 27.9848C9.44304 28.1726 8.95353 28.365 8.46325 28.5551C8.10479 28.694 7.74556 28.8313 7.38672 28.9698C7.38789 28.9782 7.38867 28.9862 7.38984 28.9946H31.1093C31.1635 28.7571 31.217 28.5352 31.2638 28.3118C31.3589 27.8593 31.4467 27.4052 31.545 26.9535C31.6932 26.2722 31.8508 25.5932 31.9994 24.9119C32.132 24.3052 32.2596 23.6977 32.3863 23.0899C32.4433 22.8175 32.4858 22.5425 32.5462 22.2713C32.6492 21.8069 32.7651 21.3452 32.868 20.8804C32.9698 20.4214 33.0588 19.9596 33.159 19.5002C33.299 18.858 33.4473 18.2172 33.5869 17.5749C33.6867 17.1167 33.7718 16.655 33.8744 16.1974C34.0557 15.3888 34.2496 14.5828 34.4294 13.7741C34.5363 13.2929 34.6256 12.8075 34.7231 12.3243C34.7469 12.2061 34.7711 12.0883 34.796 11.9705C34.8635 11.6488 34.9318 11.3271 35.0008 11.0011H8.86226V11Z" fill="white"/>
<path d="M8.54864 27.2916C8.80139 27.1649 9.04595 27.0219 9.30065 26.8995C9.62907 26.7415 9.96685 26.6026 10.2957 26.445C10.7387 26.2323 11.1756 26.007 11.6175 25.792C12.1741 25.5212 12.7338 25.2569 13.2908 24.9864C13.7959 24.7412 14.2983 24.4911 14.8026 24.2447C15.424 23.941 16.0461 23.6392 16.6678 23.3358C17.0579 23.1457 17.4448 22.9498 17.8376 22.7655C18.2939 22.5512 18.753 22.3416 19.2148 22.1393C19.9407 21.821 20.6666 21.5031 21.3991 21.1998C21.8496 21.0135 22.3106 20.8517 22.7689 20.6845C23.2815 20.4978 23.7928 20.3058 24.312 20.1382C24.8424 19.9672 25.378 19.8066 25.9189 19.6723C26.6768 19.4841 27.4425 19.3254 28.2042 19.1513C28.3805 19.1111 28.5564 19.0664 28.7281 19.0105C28.8626 18.9665 28.8813 18.8476 28.7675 18.7684C28.7019 18.7229 28.6185 18.6777 28.5416 18.6754C27.8477 18.6571 27.1527 18.6135 26.465 18.7646C26.1752 18.8284 25.8764 18.8522 25.5858 18.913C25.1701 18.9998 24.7558 19.0955 24.3451 19.2029C23.948 19.307 23.5549 19.4271 23.1625 19.5476C22.8696 19.6375 22.5794 19.7366 22.29 19.8364C21.9136 19.9661 21.5391 20.1007 21.1635 20.2335C20.7828 20.3681 20.3978 20.4921 20.023 20.6401C19.5838 20.8138 19.1528 21.0066 18.7195 21.1944C18.3528 21.3535 17.9881 21.5169 17.5872 21.694C17.0076 19.9252 16.4287 18.1594 15.8417 16.3688C15.8967 16.3573 15.9322 16.3435 15.9677 16.3435C19.3806 16.3443 22.7935 16.3462 26.2064 16.3477C26.4404 16.3477 26.6745 16.3504 26.9085 16.3451C27.0739 16.3416 27.1066 16.2793 27.0509 16.1232C26.9916 15.9579 26.8785 15.8363 26.7182 15.7808C26.3679 15.6592 26.018 15.515 25.6553 15.4561C24.9665 15.344 24.2706 15.2545 23.574 15.2131C22.7966 15.1665 22.0154 15.1753 21.2357 15.1745C16.8933 15.1703 12.5505 15.1703 8.20813 15.1699C8.12778 15.1699 8.04704 15.1841 7.97839 15.1906C7.90974 15.5406 7.85163 15.8661 7.78142 16.189C7.67845 16.6626 7.5626 17.1335 7.45963 17.607C7.36407 18.0469 7.28372 18.4903 7.18621 18.9302C7.04735 19.5556 6.89601 20.1788 6.7556 20.8038C6.63 21.365 6.51221 21.9277 6.39051 22.4897C6.26882 23.0524 6.14596 23.6147 6.02426 24.1774C5.89165 24.791 5.75708 25.4038 5.62914 26.0181C5.52656 26.5093 5.43568 27.0024 5.3331 27.4935C5.28161 27.7399 5.2114 27.9824 5.1568 28.2284C5.10141 28.4766 5.055 28.7268 5 28.9992C5.46181 28.7731 5.89828 28.557 6.33708 28.3458C6.7907 28.1274 7.24706 27.9143 7.70185 27.6982C7.98463 27.5635 8.26859 27.4312 8.54864 27.2912V27.2916Z" fill="white"/>
<path d="M29.6112 18.6575C29.5495 18.8576 29.4821 19.0561 29.4173 19.2554C29.4403 19.2726 29.4637 19.2898 29.4868 19.307C29.5558 19.2676 29.6467 19.2439 29.69 19.1861C29.807 19.0301 29.9232 18.8679 30.004 18.6927C30.1881 18.2933 30.3885 17.8947 30.5126 17.4762C30.6487 17.0164 30.4248 16.6412 30.0051 16.5452C29.729 16.482 29.4423 16.4461 29.1587 16.4357C28.6786 16.4182 28.1965 16.4419 27.7163 16.4266C27.4449 16.4178 27.2081 16.4319 27.0712 16.7089C27.0462 16.7594 26.9725 16.7884 26.9183 16.8221C26.5259 17.0654 26.0793 17.1002 25.6343 17.1442C25.3597 17.1714 25.0835 17.1932 24.814 17.2467C24.7235 17.2647 24.5909 17.368 24.5847 17.441C24.573 17.5833 24.7173 17.6051 24.8405 17.5986C25.4669 17.5657 26.0937 17.5401 26.7194 17.4942C27.3657 17.4468 28.0096 17.3672 28.6563 17.3247C28.9789 17.3037 29.3054 17.3244 29.6287 17.3458C29.8011 17.3573 29.9376 17.5351 29.8963 17.6981C29.8148 18.0213 29.7095 18.3388 29.6108 18.6579L29.6112 18.6575Z" fill="white"/>
</g>
<defs>
<clipPath id="clip0_7517_13685">
<rect width="30" height="18" fill="white" transform="translate(5 11)"/>
</clipPath>
</defs>
</svg>
